<?xml version="1.0" standalone="no"?>
<!DOCTYPE svg PUBLIC "-//W3C//DTD SVG 20010904//EN"
 "http://www.w3.org/TR/2001/REC-SVG-20010904/DTD/svg10.dtd">
<svg version="1.0" xmlns="http://www.w3.org/2000/svg"
 width="215.000000pt" height="196.000000pt" viewBox="0 0 515.000000 396.000000"
 preserveAspectRatio="xMidYMid meet">

<g transform="translate(0.000000,396.000000) scale(0.100000,-0.100000)"
fill="#000000" stroke="none">
<path d="M2457 3038 l-67 -41 2 -511 3 -511 66 -3 c47 -2 69 1 78 11 15 19 11
1089 -4 1093 -5 1 -40 -16 -78 -38z"/>
<path d="M2207 2853 l-67 -37 2 -421 3 -420 75 0 75 0 0 454 c0 294 -4 455
-10 457 -5 2 -40 -13 -78 -33z"/>
<path d="M2698 2854 l-68 -34 0 -414 c0 -344 2 -416 14 -425 9 -7 40 -11 78
-9 l63 3 3 458 c2 362 0 457 -10 457 -7 -1 -43 -17 -80 -36z"/>
<path d="M1615 2788 c-3 -7 -4 -242 -3 -523 l3 -510 765 -3 c421 -1 771 0 778
3 8 3 -13 36 -59 95 l-71 90 -607 2 -606 3 -3 117 -3 117 148 3 148 3 3 87 3
87 -148 3 -148 3 -3 123 -3 122 151 0 150 0 0 95 0 95 -245 0 c-187 0 -247 -3
-250 -12z"/>
<path d="M2890 2711 l0 -89 138 -4 c122 -3 141 -6 174 -26 74 -46 101 -173 51
-240 -45 -61 -63 -67 -216 -72 l-142 -5 0 -85 0 -85 48 -3 48 -3 152 -174 152
-175 113 0 c70 0 112 4 112 10 0 6 -67 87 -150 179 -82 93 -150 174 -150 180
0 6 6 11 13 11 31 0 136 61 165 96 55 66 75 135 70 239 -5 105 -30 167 -90
227 -79 79 -176 108 -360 108 l-128 0 0 -89z"/>
<path d="M2587 1623 l-28 -4 3 -152 3 -152 33 -3 32 -3 0 60 c0 58 1 61 24 61
29 0 35 -8 56 -70 13 -40 19 -45 49 -48 l33 -3 -6 38 c-4 21 -15 54 -24 73
-17 35 -17 37 6 70 27 40 23 72 -11 107 -17 17 -37 24 -82 27 -33 2 -72 2 -88
-1z m118 -93 c0 -28 -4 -35 -25 -40 -39 -10 -50 -1 -50 42 l0 39 38 -3 c35 -3
37 -5 37 -38z"/>
<path d="M1622 1468 l3 -153 98 -3 97 -3 0 30 c0 30 0 30 -62 33 -63 3 -63 3
-63 33 0 29 2 30 55 35 51 5 55 7 58 33 3 27 2 27 -52 27 -44 0 -56 3 -61 19
-12 39 4 51 66 51 56 0 59 1 59 25 l0 25 -100 0 -101 0 3 -152z"/>
<path d="M3390 1591 c-15 -4 -26 -15 -28 -29 -2 -12 -10 -22 -18 -22 -19 0
-18 -46 1 -54 11 -4 15 -22 15 -70 0 -77 18 -107 68 -108 18 -1 38 4 44 10 15
15 2 43 -22 49 -17 5 -20 14 -20 64 0 56 1 59 25 59 20 0 25 5 25 25 0 20 -5
25 -25 25 -21 0 -25 5 -25 30 0 32 -1 32 -40 21z"/>
<path d="M1888 1533 c-19 -5 -21 -12 -13 -36 5 -10 18 -13 55 -9 42 4 50 2 50
-12 0 -11 -9 -16 -27 -16 -39 0 -91 -34 -95 -62 -6 -39 11 -76 42 -86 16 -6
31 -8 34 -5 3 4 32 7 63 7 l58 1 3 70 c5 123 -16 156 -100 154 -29 -1 -61 -3
-70 -6z m102 -127 c0 -30 -13 -46 -36 -46 -45 0 -22 59 24 60 6 0 12 -6 12
-14z"/>
<path d="M2132 1520 c-43 -40 -18 -104 49 -125 10 -4 19 -13 19 -22 0 -13 -9
-15 -44 -11 -39 5 -45 3 -50 -15 -7 -28 9 -37 72 -37 61 0 92 23 92 69 0 34
-21 59 -62 73 -42 15 -37 41 7 36 27 -3 36 0 41 14 9 29 -4 38 -55 38 -34 0
-53 -6 -69 -20z"/>
<path d="M2305 1503 c7 -21 25 -67 39 -102 32 -81 32 -96 0 -117 -18 -12 -24
-24 -22 -43 4 -35 29 -37 67 -5 39 33 59 71 105 202 l35 102 -38 0 c-34 0 -40
-3 -45 -27 -30 -121 -34 -123 -60 -30 -17 57 -17 57 -56 57 l-39 0 14 -37z"/>
<path d="M2872 1524 c-68 -47 -67 -165 0 -200 30 -16 118 -21 138 -9 6 3 10
15 10 26 0 16 -7 19 -46 19 -47 0 -84 13 -84 30 0 6 32 10 70 10 55 0 72 3 77
16 9 24 -15 92 -40 109 -28 19 -96 19 -125 -1z m98 -59 c0 -11 -12 -15 -40
-15 -40 0 -46 5 -32 26 18 27 72 19 72 -11z"/>
<path d="M3082 1428 l3 -113 33 -3 32 -3 0 75 c0 84 16 114 50 96 16 -8 20
-24 22 -88 l3 -77 35 0 c35 0 35 0 38 50 5 72 -7 134 -29 156 -22 22 -88 26
-108 7 -11 -10 -14 -10 -18 0 -3 6 -18 12 -34 12 l-30 0 3 -112z"/>
</g>
</svg>
