<?xml version="1.0" encoding="utf-8"?>
<!-- Generator: Adobe Illustrator 23.0.5, SVG Export Plug-In . SVG Version: 6.00 Build 0)  -->
<svg version="1.1" xmlns="http://www.w3.org/2000/svg" xmlns:xlink="http://www.w3.org/1999/xlink" x="0px" y="0px"
	 viewBox="0 0 141.7 141.7" style="enable-background:new 0 0 141.7 141.7;" xml:space="preserve">
<style type="text/css">
	.st0{fill:#FFF427;}
	.st1{display:none;}
	.st2{display:inline;}
	.st3{fill:#853F38;}
	.st4{fill:#A9534F;}
	.st5{fill:#FFAC9D;}
	.st6{fill:#E08880;}
	.st7{fill:#438584;}
	.st8{fill:#5CA9A5;}
	.st9{fill:#352836;}
	.st10{fill:#FFFFFF;}
	.st11{fill:#FFEDEE;}
	.st12{opacity:0.1;fill:#352836;}
	.st13{fill:#5996BF;}
	.st14{fill:#6CBBE6;}
	.st15{fill:#FFDEBF;}
	.st16{fill:#DCB9A2;}
	.st17{fill:#EC894B;}
	.st18{fill:#FFA655;}
	.st19{fill:none;stroke:#7F5E6A;stroke-width:1.8333;stroke-miterlimit:10;}
	.st20{fill:none;stroke:#7F5E6A;stroke-miterlimit:10;}
	.st21{fill:#F1534F;}
	.st22{fill:#FF6A59;}
	.st23{fill:none;stroke:#7F5E6A;stroke-width:1.4341;stroke-miterlimit:10;}
	.st24{fill:#9CC7DC;stroke:#7F5E6A;stroke-width:1.4341;stroke-miterlimit:10;}
	.st25{fill:#FF9C7B;}
	.st26{fill:#D97E65;}
	.st27{fill:#7F5E6A;}
	.st28{fill:#987381;}
	.st29{fill:#B26651;}
	.st30{fill:#FF9A40;}
	.st31{fill:#E96D17;}
	.st32{fill:#FFB8A1;}
	.st33{fill:#3F2037;}
	.st34{fill:#FF8A8A;}
	.st35{opacity:0.5;}
	.st36{fill:#0075CF;}
	.st37{fill:#0056A8;}
	.st38{fill:#FF4F4E;}
	.st39{fill:#C42C31;}
</style>
<g id="Layer_1">
	<rect x="0" y="0" class="st0" width="141.7" height="141.7"/>
	<g class="st1">
		<g class="st2">
			<g>
				<path class="st3" d="M61.8,78c0,0-9.7,6.1-4.4,15.4c5.3,9.3,41.8,6.7,23-15.4C64.8,59.7,61.8,78,61.8,78z"/>
			</g>
			<g>
				<path class="st3" d="M97.3,54.4c0,0-4.2,5.1-3.4,10.1c1.2,7.3-9.9,16.9-21.3,13.7s0.8-24.5,0.8-24.5L97.3,54.4z"/>
				<path class="st3" d="M44.1,54.4c0,0,4.2,5.1,3.4,10.1c-1.2,7.3,9.9,16.9,21.3,13.7s-0.8-24.5-0.8-24.5L44.1,54.4z"/>
				<path class="st4" d="M73,70.3c5.2,0.1,10.5-0.9,15.2-3.3c2.5-1.3,4.2-3,5.7-5c0.5-4.1,3.4-7.6,3.4-7.6l-23.8-0.6
					c0,0-5.2,9-5.7,16.2C69.6,70.2,71.3,70.3,73,70.3z"/>
				<path class="st4" d="M47.5,63.6c7.8,4.1,16.8,6.6,25.5,6.7c0.2,0,0.4,0,0.6,0c-0.3-7.2-5.7-16.6-5.7-16.6l-23.8,0.6
					C44.1,54.4,47.8,58.9,47.5,63.6z"/>
			</g>
		</g>
		<g class="st2">
			<g>
				<path class="st5" d="M83.4,88.6c-5.4-2.9-3.9-17.1-3.9-17.1l-8,0.5v-0.5l-0.9,0.3l-0.9-0.3V72l-8-0.5c0,0,1.5,14.1-3.9,17.1
					c-5.4,2.9-38.3,4.4-34.9,37.1h46.9h1.7h46.9C121.8,93,88.8,91.5,83.4,88.6z"/>
				<path class="st6" d="M60.6,84.9c6.4-1,12.8-1.9,19.2-3c-0.9-4.9-0.3-10.5-0.3-10.5l-8,0.5v-0.5l-0.9,0.3l-0.9-0.3V72l-8-0.5
					C61.7,71.5,62.6,79.7,60.6,84.9z"/>
			</g>
			<g>
				<path class="st7" d="M94.3,91.1c-4.7,4.3-11.6,7.2-19.5,8l-4.3,15.3l-2.3-15.2c-8.6-0.5-16.1-3.5-21.1-8.1
					c-11.1,3.6-27.4,11.3-25,34.6h47.7h1.8h47.7C121.8,102.4,105.5,94.7,94.3,91.1z"/>
				<g>
					<path class="st8" d="M68.9,103.1l-0.6-3.9c-8.6-0.5-16.1-3.5-21.1-8.1c-1.9,0.6-3.9,1.3-5.9,2.2
						C45.2,98.7,55.9,102.6,68.9,103.1z"/>
					<path class="st8" d="M100.9,93.6c-2.2-1-4.5-1.9-6.6-2.5c-4.7,4.3-11.6,7.2-19.5,8l-1.1,4C86.3,102.6,96.8,98.8,100.9,93.6z"/>
				</g>
				<path class="st8" d="M69.6,118.1c0,1,0.8,1.8,1.8,1.8s1.8-0.8,1.8-1.8c0-1-0.8-1.8-1.8-1.8S69.6,117.1,69.6,118.1z"/>
			</g>
		</g>
		<g class="st2">
			<g>
				<g>
					<path class="st6" d="M54.9,50.8c-1.6-4.9-5.3-3.8-5.7-3.7c-0.4,0-4.2,0.6-3.6,5.7c0.7,5.1,3.7,7.9,6.5,7.1
						C55,59.5,56.5,55.7,54.9,50.8z"/>
					<path class="st6" d="M86.5,50.8c1.6-4.9,5.3-3.8,5.7-3.7c0.4,0,4.2,0.6,3.6,5.7c-0.7,5.1-3.7,7.9-6.5,7.1
						C86.4,59.5,84.9,55.7,86.5,50.8z"/>
					<path class="st5" d="M51.1,43.4c2-21.5,18.3-20.3,19.8-20.1c1.5-0.2,17.9-1.4,19.8,20.1c2,21.6-7.7,35.8-19.8,35
						C58.7,79.1,49.1,65,51.1,43.4z"/>
				</g>
				<g>
					<path class="st4" d="M50.4,47.4c0,0-1.1,28.3,15.6,31.4C82.7,82,93,68.1,91.5,46l-2.1-0.2c0,0-1.4,22.4-6.4,22.6
						c-5.1,0.2,2.4-7-7.3-7.4c-9.7-0.4-14.5-3.7-15.3,4.5c-0.5,5.5-7.3-3.9-8.1-18.5C51.5,32.5,50.4,47.4,50.4,47.4z"/>
					<path class="st3" d="M53.1,53.5c-0.4-2-0.7-4.2-0.8-6.5c-0.8-14.6-1.9,0.4-1.9,0.4s-0.1,3.1,0.3,7.3
						C51.5,54.3,52.3,53.9,53.1,53.5z"/>
					<path class="st3" d="M91.5,53.7c0.2-2.4,0.2-5,0-7.7l-2.1-0.2c0,0-0.2,3.1-0.7,6.9C89.7,53,90.6,53.4,91.5,53.7z"/>
				</g>
			</g>
			<g>
				<g>
					<path class="st6" d="M73.7,45.9c0.7,2,1.1,3.9,1.4,5.9c0.1,1,0.3,2,0.4,3c0.1,1,0.2,2,0.2,3l0,0.4l-0.3,0.2
						c-0.7,0.4-1.3,0.7-2,1.1c-0.7,0.3-1.4,0.7-2.1,0.9c0.5-0.6,1.1-1.1,1.6-1.6c0.6-0.5,1.1-1,1.7-1.5L74.4,58c-0.2-1-0.4-2-0.5-3
						c-0.1-1-0.2-2-0.3-3C73.5,50,73.5,47.9,73.7,45.9z"/>
				</g>
				<g>
					<path class="st9" d="M86.3,44.3c-1.1-0.4-2-0.7-2.8-1c-0.9-0.3-1.6-0.5-2.4-0.5c-0.7-0.1-1.5,0-2.3,0.2
						c-0.4,0.1-0.8,0.3-1.3,0.4c-0.5,0.2-0.9,0.4-1.5,0.5c0.1-0.5,0.4-1.1,0.6-1.5c0.3-0.4,0.7-0.9,1.2-1.3c0.9-0.7,2.2-1.1,3.5-1
						c1.2,0.1,2.4,0.7,3.2,1.4C85.5,42.2,86.1,43.2,86.3,44.3z"/>
				</g>
				<g>
					<path class="st9" d="M66,44.3c-1.1-0.4-2-0.7-2.8-1c-0.9-0.3-1.6-0.5-2.4-0.5c-0.7-0.1-1.5,0-2.3,0.2c-0.4,0.1-0.8,0.3-1.3,0.4
						c-0.5,0.2-0.9,0.4-1.5,0.5c0.1-0.5,0.4-1.1,0.6-1.5c0.3-0.4,0.7-0.9,1.2-1.3c0.9-0.7,2.2-1.1,3.5-1c1.2,0.1,2.4,0.7,3.2,1.4
						C65.1,42.2,65.7,43.2,66,44.3z"/>
				</g>
				<g>
					<path class="st9" d="M65.3,52.1c-0.4-0.9-0.8-1.7-1.3-2.3c-0.6-0.6-1.3-0.9-2.1-0.9c-0.8,0-1.5,0.2-2.1,0.8
						c-0.5,0.6-0.8,1.5-1,2.4c-0.3-0.9-0.3-2,0.3-3c0.3-0.5,0.7-0.9,1.2-1.2c0.5-0.2,1.1-0.3,1.6-0.3c1.1,0,2.2,0.6,2.8,1.5
						C65.3,50.1,65.5,51.1,65.3,52.1z"/>
				</g>
				<g>
					<path class="st9" d="M83.6,51.8c-0.4-0.9-0.8-1.7-1.3-2.3c-0.6-0.6-1.3-0.9-2.1-0.9c-0.8,0-1.5,0.2-2.1,0.8
						c-0.5,0.6-0.8,1.5-1,2.4c-0.3-0.9-0.3-2,0.3-3c0.3-0.5,0.7-0.9,1.2-1.2c0.5-0.2,1.1-0.3,1.6-0.3c1.1,0,2.2,0.6,2.8,1.5
						C83.6,49.8,83.8,50.8,83.6,51.8z"/>
				</g>
				<path class="st10" d="M79.3,64.4c-3.9,3.8-10.5,3.6-15.5,0.2"/>
			</g>
			<g>
				<g>
					<path class="st3" d="M71.2,26.3c0,0-11.8-2.1-13.7,5.3c-1.9,7.4,0.8,17.3-7.8,15.8c0,0-6.3,1.3-2.3,11.2
						c0,0-11.9-11.4-4.9-19.6c5.7-6.7,3.4-21.3,17.3-23.6C73.8,13.1,71.2,23.6,71.2,26.3z"/>
				</g>
				<g>
					<path class="st4" d="M71.2,26.3c0,0-11.8-2.1-13.7,5.3c-1.9,7.4,0.8,17.3-7.8,15.8c0,0-6.3,1.3-2.3,11.2
						c0,0-11.9-11.4-4.9-19.6c5.7-6.7,3.4-21.3,17.3-23.6C73.8,13.1,71.2,23.6,71.2,26.3z"/>
				</g>
				<g>
					<path class="st4" d="M70.1,26.3c0,0,11.8-2.1,13.7,5.3c1.9,7.4-0.8,17.3,7.8,15.8c0,0,6.3,1.3,2.3,11.2c0,0,11.9-11.4,4.9-19.6
						c-5.7-6.7-3.4-21.3-17.3-23.6C67.6,13.1,70.1,23.6,70.1,26.3z"/>
				</g>
				<g>
					<g>
						<path class="st4" d="M69.9,24.1c1.7,0,3.3,0.1,4.9,0.4c1.6,0.3,3.2,0.7,4.7,1.5c1.5,0.7,3,1.8,4,3.4c0.5,0.8,0.8,1.7,1,2.5
							c0.2,0.9,0.2,1.6,0.3,2.5c0.2,3.2-0.3,6.3-0.2,9.3c0.1,1.4,0.3,2.9,1.3,3.9c0.9,1,2.5,1.2,4,1.2l0,0l0,0
							c0.5,0.1,0.9,0.2,1.4,0.4c0.4,0.2,0.9,0.4,1.2,0.7c0.4,0.3,0.7,0.7,0.9,1.1c0.2,0.4,0.2,0.9,0.2,1.4c0-0.9-0.5-1.8-1.3-2.2
							c-0.7-0.5-1.6-0.7-2.5-0.7l0.1,0c-0.8,0.1-1.6,0.1-2.4,0c-0.8-0.1-1.7-0.4-2.4-1c-0.7-0.6-1.2-1.4-1.5-2.1
							c-0.3-0.8-0.5-1.6-0.6-2.4c-0.4-3.2-0.2-6.3-0.5-9.2c-0.1-0.7-0.2-1.5-0.3-2.1c-0.2-0.6-0.4-1.2-0.8-1.7
							c-0.7-1-1.8-1.8-3.1-2.4c-2.5-1.1-5.6-1.5-8.4-1.5L69.9,24.1z"/>
					</g>
				</g>
			</g>
		</g>
	</g>
	<g class="st1">
		<g class="st2">
			<g>
				<path class="st4" d="M82.9,90.5c-5.1-2.8-3.7-16.2-3.7-16.2l-7.6,0.5v-0.5l-0.8,0.2l-0.8-0.2v0.5l-7.6-0.5
					c0,0,1.4,13.4-3.7,16.2c-5.1,2.8-35.1,4.2-31.9,35.1h43.2h1.6h43.2C118,94.7,88,93.3,82.9,90.5z"/>
				<path class="st3" d="M61.2,87.1c6.1-0.9,12.2-1.8,18.2-2.8c-0.9-4.6-0.3-9.9-0.3-9.9l-7.6,0.5v-0.5l-0.8,0.2l-0.8-0.2v0.5
					l-7.6-0.5C62.3,74.3,63.1,82.1,61.2,87.1z"/>
			</g>
			<g>
				<g>
					<path class="st11" d="M89.3,91.8c-2.7,7.1-10,12.2-18.5,12.2s-15.8-5.1-18.5-12.2c-10.5,2.9-28.9,9-26.3,33.8h44h1.7h44
						C118.2,100.8,99.7,94.7,89.3,91.8z"/>
					<path class="st12" d="M108.4,101.5c-11.2,7.3-24.8,10.1-37.4,14.1c-11.8,3.8-23.8,7-35.8,10h80.3
						C116.8,114.1,113.4,106.5,108.4,101.5z"/>
				</g>
				<g>
					<g>
						<path class="st13" d="M91,92.3v33.3h24.5C118,102.2,101.7,95.4,91,92.3z"/>
						<path class="st13" d="M50.3,92.3c-10.6,3.1-26.8,9.9-24.3,33.3h24.3V92.3z"/>
					</g>
					<path class="st14" d="M50.6,92.3v33.3c0,0-12.3-20.9-11.7-28.1S49.4,89.9,50.6,92.3z"/>
					<path class="st14" d="M90.4,92.3v33.3c0,0,12.3-20.9,11.7-28.1C101.5,90.3,91.6,89.9,90.4,92.3z"/>
				</g>
			</g>
		</g>
		<g class="st2">
			<g>
				<path class="st3" d="M55.9,54.7c-1.5-4.6-5-3.6-5.4-3.5c-0.3,0-4,0.6-3.4,5.4c0.6,4.9,3.5,7.5,6.1,6.7
					C55.9,63,57.4,59.4,55.9,54.7z"/>
				<path class="st3" d="M85.8,54.7c1.5-4.6,5-3.6,5.4-3.5c0.3,0,4,0.6,3.4,5.4c-0.6,4.9-3.5,7.5-6.1,6.7
					C85.7,63,84.3,59.4,85.8,54.7z"/>
				<path class="st4" d="M52.2,47.7C54.1,27.3,69.6,28.4,71,28.6c1.5-0.2,17-1.3,18.8,19.1c1.9,20.5-7.3,33.9-18.8,33.1
					C59.5,81.6,50.4,68.2,52.2,47.7z"/>
			</g>
			<g>
				<g>
					<path class="st3" d="M73.7,50.1c0.7,1.8,1.1,3.7,1.4,5.6c0.1,0.9,0.3,1.9,0.4,2.9c0.1,1,0.1,1.9,0.2,2.9l0,0.5L75.3,62
						c-0.6,0.4-1.3,0.7-1.9,1c-0.7,0.3-1.3,0.6-2,0.9c0.5-0.6,1-1.1,1.5-1.6c0.5-0.5,1.1-1,1.6-1.4l-0.3,0.6
						c-0.2-0.9-0.4-1.9-0.5-2.8c-0.1-0.9-0.2-1.9-0.3-2.9C73.4,53.9,73.4,52,73.7,50.1z"/>
				</g>
				<path class="st10" d="M78.9,67.6c-3.7,3.6-9.9,3.4-14.7,0.2"/>
				<g>
					<path class="st9" d="M85.6,48.5l-2.7-0.9c-0.8-0.3-1.5-0.4-2.2-0.5c-0.7-0.1-1.3,0-2.1,0.2c-0.4,0-0.8,0.2-1.2,0.3
						c-0.4,0.1-0.9,0.3-1.4,0.5c0.1-0.5,0.3-1,0.6-1.5c0.3-0.4,0.6-0.9,1.1-1.2c0.9-0.7,2.1-1.1,3.3-1c1.2,0.1,2.3,0.6,3.1,1.4
						C84.8,46.6,85.4,47.5,85.6,48.5z"/>
				</g>
				<g>
					<path class="st9" d="M66.3,48.5l-2.7-0.9c-0.8-0.3-1.5-0.4-2.2-0.5c-0.7-0.1-1.3,0-2.1,0.2c-0.4,0-0.8,0.2-1.2,0.3
						c-0.4,0.1-0.9,0.3-1.4,0.5c0.1-0.5,0.3-1,0.6-1.5c0.3-0.4,0.6-0.9,1.1-1.2c0.9-0.7,2.1-1.1,3.3-1c1.2,0.1,2.3,0.6,3.1,1.4
						C65.5,46.6,66.1,47.5,66.3,48.5z"/>
				</g>
				<g>
					<path class="st9" d="M65.7,55.9c-0.3-0.8-0.7-1.6-1.3-2.2c-0.5-0.6-1.2-0.9-2-0.8c-0.8,0-1.4,0.2-1.9,0.7
						c-0.5,0.6-0.8,1.4-1,2.3c-0.3-0.9-0.3-1.9,0.2-2.8c0.2-0.5,0.7-0.9,1.2-1.1c0.5-0.2,1-0.3,1.6-0.3c1,0,2.2,0.6,2.7,1.5
						C65.7,54,65.9,55,65.7,55.9z"/>
				</g>
				<g>
					<path class="st9" d="M83.1,55.7c-0.3-0.8-0.7-1.6-1.3-2.2c-0.5-0.6-1.2-0.9-2-0.8c-0.8,0-1.4,0.2-1.9,0.7
						c-0.5,0.6-0.8,1.4-1,2.3c-0.3-0.9-0.3-1.9,0.2-2.8c0.2-0.5,0.7-0.9,1.2-1.1c0.5-0.2,1-0.3,1.6-0.3c1,0,2.2,0.6,2.7,1.5
						C83.1,53.7,83.2,54.7,83.1,55.7z"/>
				</g>
			</g>
			<g>
				<path class="st15" d="M90.6,32c-1-4.2-3.5-5.2-4.7-5.5c-0.7-10.8-29.5-12.7-29.8-10.7c-0.4,2.2,10.2,5.8,10.2,5.8s-19-5-18-0.6
					c0.8,3.6,8.5,3.2,11.3,2.9c-4,0.5-17.7,2.7-11.5,8.9c0.5,0.5,1.1,0.9,1.6,1.3c-0.6,7.7,1.7,25.7,1.7,25.7H53l-0.6-12.4
					c3.1-0.6,4.5-8,5-11.2c5.2,0.1,10.5-1.7,12.5-2.4c-1.2,0.5-3,1.8-1,3.7c2.1,1.9,9.5-0.4,13.2-1.8c0.7,2.9,2.9,11.1,6.2,11.8
					l-0.6,12.4h1.6C89.2,59.7,92,37.6,90.6,32z"/>
				<path class="st16" d="M90.6,32c-1-4.2-3.5-5.2-4.7-5.5c-0.1-2-1.2-3.6-2.9-5.1c-0.9,7.3-6.2,13.5-13,16.5
					c2.9,0.7,8.8-1.2,12-2.3c0.7,2.9,2.9,11.1,6.2,11.8l-0.6,12.4h1.6C89.2,59.7,92,37.6,90.6,32z"/>
			</g>
		</g>
	</g>
	<g class="st1">
		<g class="st2">
			<g>
				<path class="st5" d="M82.8,89.4C77.5,86.6,79,72.8,79,72.8l-7.8,0.5v-0.5L70.3,73l-0.8-0.3v0.5l-7.8-0.5c0,0,1.4,13.8-3.8,16.6
					c-5.2,2.9-36.1,4.3-32.8,36.1h44.4h1.7h44.4C118.9,93.7,88,92.3,82.8,89.4z"/>
				<path class="st6" d="M60.5,85.8C66.8,84.9,73,84,79.3,83C78.4,78.2,79,72.8,79,72.8l-7.8,0.5v-0.5L70.3,73l-0.8-0.3v0.5
					l-7.8-0.5C61.6,72.8,62.5,80.8,60.5,85.8z"/>
			</g>
			<g>
				<path class="st17" d="M84.4,89.2c-2.6-1.4-3.6-5.6-3.9-9.4c-2.3,0.9-6.9,1.4-9.8,1.4c-3.5,0-8-0.7-10.5-1.9
					c-0.3,3.9-1.2,8.4-3.9,9.9C51,92,21.1,93.5,24.4,125.5h44.7h1.7h44.7C118.9,93.5,89.7,92,84.4,89.2z"/>
				<path class="st18" d="M70.3,96.6c7.2,0,13.6-2.4,18-6.2c-1.6-0.5-2.9-0.8-3.6-1.3c-2.6-1.4-3.6-5.6-3.9-9.4
					c-2.3,0.9-6.9,1.4-9.8,1.4c-3.5,0-8-0.7-10.5-1.9c-0.3,3.9-1.2,8.4-3.9,9.9c-0.8,0.5-2.3,0.9-4.1,1.4
					C56.8,94.2,63.2,96.6,70.3,96.6z"/>
				<g>
					<polyline class="st19" points="37,121.7 42,116.9 46.8,121.7 					"/>
					<polyline class="st19" points="94.1,121.5 99.9,116.9 104.7,121.7 					"/>
					<polyline class="st19" points="84.6,121.6 90,116.9 94.8,121.7 					"/>
					<polyline class="st19" points="75.4,121.7 80.4,116.9 85.2,121.7 					"/>
					<polyline class="st19" points="65.3,121.6 70.8,116.9 76,121.6 					"/>
					<polyline class="st19" points="56.2,121.7 61.2,116.9 66,121.7 					"/>
					<polyline class="st19" points="46.1,121.6 51.6,116.9 56.8,121.5 					"/>
				</g>
				<g>
					<polyline class="st20" points="37,117 42,112.2 46.8,117 					"/>
					<polyline class="st20" points="94.1,116.8 99.9,112.2 104.7,117 					"/>
					<polyline class="st20" points="84.6,116.8 90,112.2 94.8,117 					"/>
					<polyline class="st20" points="75.4,117 80.4,112.2 85.2,117 					"/>
					<polyline class="st20" points="65.3,116.9 70.8,112.2 76,116.9 					"/>
					<polyline class="st20" points="56.2,117 61.2,112.2 66,117 					"/>
					<polyline class="st20" points="46.1,116.9 51.6,112.2 56.8,116.8 					"/>
				</g>
				<path class="st18" d="M38.5,114c0-6.5-0.8-12.5-2.1-17.1c-7.4,4.8-13.6,13.1-11.9,28.7h13.2C38.2,122,38.5,118.1,38.5,114z"/>
				<path class="st18" d="M103.5,96.6c-1.4,4.7-2.2,10.7-2.2,17.4c0,4.1,0.3,8,0.9,11.5h13.3C117.2,109.7,110.9,101.3,103.5,96.6z"
					/>
			</g>
		</g>
		<g class="st2">
			<g>
				<path class="st6" d="M55,52.6c-1.5-4.8-5.2-3.7-5.5-3.6c-0.4,0-4.1,0.6-3.5,5.6c0.7,5,3.6,7.7,6.3,6.9
					C55.1,61.1,56.6,57.4,55,52.6z"/>
				<path class="st6" d="M85.7,52.6c1.5-4.8,5.2-3.7,5.5-3.6c0.4,0,4.1,0.6,3.5,5.6c-0.7,5-3.6,7.7-6.3,6.9
					C85.7,61.1,84.2,57.4,85.7,52.6z"/>
				<path class="st5" d="M51.3,45.4c1.9-20.9,17.8-19.8,19.3-19.6c1.5-0.2,17.4-1.3,19.3,19.6c1.9,21.1-7.5,34.8-19.3,34.1
					C58.7,80.2,49.3,66.4,51.3,45.4z"/>
			</g>
			<g>
				<path class="st21" d="M50.5,30.7c0,0-4.3,2.8-1.2,12.3l1.8,10.8l1.5,0.3c0,0-0.6-16.3,4.6-20S50.5,30.7,50.5,30.7z"/>
				<path class="st22" d="M83.5,32.2c0,0-20.6,12-31.7,2.5s0.6-14.5,5.2-13.9c0,0-1.5-5.2,4.6-5.9s4.9,5.5,14.2,5.5
					s13.9,0.6,12.9,8.3c0,0,4.6-2.8,6.2,2.5s-4.3,22.5-4.3,22.5l-0.6,2.8h-1.5V41.8C88.4,41.8,82.5,43.6,83.5,32.2z"/>
				<path class="st21" d="M94.9,31.3c-1.5-5.2-6.2-2.5-6.2-2.5c0.5-4.4-0.8-6.5-3.7-7.5c-0.6,4.4-2,8.7-4.6,12.5
					c1.9-0.9,3.1-1.6,3.1-1.6c-0.9,11.4,4.9,9.5,4.9,9.5v14.8h1.5l0.6-2.8C90.5,53.8,96.4,36.5,94.9,31.3z"/>
			</g>
			<g>
				<g>
					<path class="st6" d="M73.3,47.8c0.7,1.9,1.1,3.8,1.4,5.8c0.1,1,0.3,1.9,0.4,2.9c0.1,1,0.1,2,0.2,3l0,0.5L75,60.1
						c-0.6,0.4-1.3,0.7-2,1c-0.7,0.3-1.3,0.6-2.1,0.9c0.5-0.6,1-1.1,1.6-1.6c0.5-0.5,1.1-1,1.7-1.4L74,59.6c-0.2-1-0.4-1.9-0.5-2.9
						c-0.1-1-0.2-2-0.3-2.9C73.1,51.8,73.1,49.8,73.3,47.8z"/>
				</g>
				<path class="st10" d="M78.7,65.8c-3.8,3.7-10.2,3.5-15.1,0.2"/>
				<g>
					<path class="st9" d="M85.6,46.3c-1-0.4-1.9-0.7-2.8-1c-0.8-0.3-1.6-0.4-2.3-0.5c-0.7-0.1-1.4,0-2.2,0.2c-0.4,0-0.8,0.3-1.3,0.4
						c-0.5,0.1-0.9,0.4-1.5,0.5c0.1-0.5,0.3-1,0.6-1.5c0.3-0.4,0.7-0.9,1.1-1.2c0.9-0.7,2.2-1.1,3.4-1c1.2,0.1,2.3,0.6,3.1,1.4
						C84.8,44.3,85.4,45.2,85.6,46.3z"/>
				</g>
				<g>
					<path class="st9" d="M65.8,46.3c-1-0.4-1.9-0.7-2.8-1c-0.8-0.3-1.6-0.4-2.3-0.5c-0.7-0.1-1.4,0-2.2,0.2c-0.4,0-0.8,0.3-1.3,0.4
						c-0.5,0.1-0.9,0.4-1.5,0.5c0.1-0.5,0.3-1,0.6-1.5c0.3-0.4,0.7-0.9,1.1-1.2c0.9-0.7,2.2-1.1,3.4-1c1.2,0.1,2.3,0.6,3.1,1.4
						C64.9,44.3,65.6,45.2,65.8,46.3z"/>
				</g>
				<path class="st23" d="M49.6,48.5l5.4,4.1L68.5,53c0,0,3.5-4.9,6.4,0h13.9l4.2-3.9"/>
				<circle class="st24" cx="61.5" cy="53" r="6.9"/>
				<circle class="st24" cx="81.8" cy="53" r="6.9"/>
				<g>
					<path class="st9" d="M65.1,53.9c-0.3-0.9-0.8-1.7-1.3-2.3c-0.6-0.6-1.2-0.9-2-0.9c-0.8,0-1.5,0.2-2,0.8c-0.5,0.6-0.8,1.5-1,2.4
						c-0.3-0.9-0.3-1.9,0.2-2.9c0.3-0.5,0.7-0.9,1.2-1.1c0.5-0.2,1.1-0.3,1.6-0.3c1.1,0,2.2,0.6,2.7,1.5
						C65.1,51.9,65.3,52.9,65.1,53.9z"/>
				</g>
				<g>
					<path class="st9" d="M83,53.6c-0.3-0.9-0.8-1.7-1.3-2.3c-0.6-0.6-1.2-0.9-2-0.9c-0.8,0-1.5,0.2-2,0.8c-0.5,0.6-0.8,1.5-1,2.4
						c-0.3-0.9-0.3-1.9,0.2-2.9c0.3-0.5,0.7-0.9,1.2-1.1c0.5-0.2,1.1-0.3,1.6-0.3c1.1,0,2.2,0.6,2.7,1.5C83,51.6,83.1,52.6,83,53.6z
						"/>
				</g>
			</g>
		</g>
	</g>
	<g class="st1">
		<g class="st2">
			<g>
				<path class="st25" d="M82.4,90.2c-5.1-2.8-3.7-16.4-3.7-16.4L71,74.3v-0.5l-0.8,0.2l-0.8-0.2v0.5l-7.7-0.5
					c0,0,1.4,13.6-3.7,16.4c-5.1,2.8-35.6,4.2-32.3,35.6h43.7H71h43.7C118,94.4,87.6,93,82.4,90.2z"/>
				<path class="st26" d="M60.5,86.7c6.2-0.9,12.3-1.9,18.5-2.8c-0.9-4.7-0.3-10-0.3-10L71,74.3v-0.5l-0.8,0.2l-0.8-0.2v0.5
					l-7.7-0.5C61.6,73.8,62.4,81.7,60.5,86.7z"/>
			</g>
			<g>
				<g>
					<path class="st22" d="M87.4,91.8c-4.2,3.7-10.3,6.1-17.2,6.1c-6.9,0-13-2.4-17.2-6.1c-10.1,2.7-30,8.3-27.3,34h43.7H71h43.7
						C117.4,100.1,97.5,94.5,87.4,91.8z"/>
					<path class="st21" d="M25.4,120.4c0,1.7,0,3.4,0.2,5.3h89.1c1.2-11.1-1.9-18.5-6.6-23.5C80.3,107.1,52.7,113.5,25.4,120.4z"/>
				</g>
				<g>
					<g>
						<path class="st27" d="M51.6,90.6l5.3,35.2H23.2C23.2,125.8,19.6,95.8,51.6,90.6z"/>
						<path class="st28" d="M51.6,90.6l5.3,35.2l-14.2-22.3l5.7-7.7L41,93C41,93,45.9,90.8,51.6,90.6z"/>
					</g>
					<g>
						<path class="st27" d="M88.4,90.6l-5.3,35.2h33.6C116.8,125.8,120.4,95.8,88.4,90.6z"/>
						<path class="st28" d="M88.4,90.6l-5.3,35.2l14.2-22.3l-5.7-7.7L99,93C99,93,94.1,90.8,88.4,90.6z"/>
					</g>
				</g>
			</g>
		</g>
		<g class="st2">
			<g>
				<path class="st26" d="M55.1,53.9c-1.5-4.7-5.1-3.6-5.4-3.5c-0.4,0-4.1,0.6-3.4,5.5c0.6,4.9,3.5,7.6,6.2,6.8
					C55.2,62.3,56.6,58.7,55.1,53.9z"/>
				<path class="st26" d="M85.4,53.9c1.5-4.7,5.1-3.6,5.4-3.5c0.4,0,4.1,0.6,3.4,5.5c-0.6,4.9-3.5,7.6-6.2,6.8
					C85.3,62.3,83.8,58.7,85.4,53.9z"/>
				<path class="st25" d="M51.4,46.8c1.9-20.6,17.6-19.5,19-19.3c1.5-0.2,17.2-1.3,19,19.3c1.9,20.8-7.4,34.3-19,33.6
					C58.7,81.1,49.5,67.6,51.4,46.8z"/>
			</g>
			<g>
				<g>
					<path class="st29" d="M70.8,63.3c0.3-0.8,0.8-1.4,1.4-1.9c0.3-0.2,0.6-0.5,0.9-0.6c0.3-0.2,0.6-0.4,1-0.5l-0.3,0.6
						c-0.2-1.9-0.3-3.9-0.4-5.8c-0.1-1.9-0.2-3.9-0.2-5.8c0.4,1.9,0.7,3.8,1.1,5.7c0.3,1.9,0.6,3.8,0.9,5.8l0,0.3l-0.3,0.3
						c-0.3,0.3-0.5,0.5-0.8,0.7c-0.3,0.2-0.6,0.4-0.9,0.6C72.4,63,71.7,63.3,70.8,63.3z"/>
				</g>
				<path class="st10" d="M78.4,67c-3.7,3.6-9.5,3.4-14.3,0.2"/>
				<g>
					<path class="st9" d="M85.2,47.7c-1.3-0.2-2.2-0.3-3.1-0.5c-0.9-0.1-1.6-0.2-2.2-0.3c-0.6-0.1-1.3-0.1-2.1,0
						c-0.4,0-0.8,0.1-1.3,0.1c-0.5,0.1-1,0.2-1.7,0.2c0-0.6,0.2-1.2,0.5-1.8c0.3-0.5,0.7-1,1.2-1.4c1-0.8,2.4-1.3,3.7-1.1
						c1.3,0.1,2.6,0.7,3.4,1.5C84.5,45.3,85.1,46.4,85.2,47.7z"/>
				</g>
				<g>
					<path class="st9" d="M67.6,47.3c-1.3-0.1-2.3-0.2-3.2-0.3c-0.9-0.1-1.7-0.1-2.4-0.1c-0.7,0-1.4,0-2.2,0.1
						c-0.4,0-0.9,0.2-1.4,0.2c-0.5,0.1-1,0.3-1.7,0.3c0-0.7,0.2-1.3,0.5-1.8c0.3-0.5,0.6-1.1,1.2-1.5c0.5-0.5,1.1-0.8,1.7-1
						c0.6-0.2,1.3-0.4,2-0.3c1.4,0,2.6,0.5,3.6,1.3C66.6,45,67.4,46,67.6,47.3z"/>
				</g>
				<g>
					<path class="st9" d="M65.1,55.2c-0.3-0.9-0.7-1.7-1.3-2.2c-0.5-0.6-1.2-0.9-2-0.9c-0.8,0-1.5,0.2-2,0.8c-0.5,0.6-0.8,1.4-1,2.3
						c-0.3-0.9-0.3-1.9,0.2-2.9c0.3-0.5,0.7-0.9,1.2-1.1c0.5-0.2,1.1-0.3,1.6-0.3c1,0,2.2,0.6,2.7,1.5
						C65.1,53.3,65.2,54.3,65.1,55.2z"/>
				</g>
				<g>
					<path class="st9" d="M82.6,54.9c-0.3-0.9-0.7-1.7-1.3-2.2c-0.5-0.6-1.2-0.9-2-0.9c-0.8,0-1.5,0.2-2,0.8c-0.5,0.6-0.8,1.4-1,2.3
						C76.1,54,76.1,53,76.6,52c0.3-0.5,0.7-0.9,1.2-1.1c0.5-0.2,1.1-0.3,1.6-0.3c1,0,2.2,0.6,2.7,1.5C82.6,53,82.8,54,82.6,54.9z"/>
				</g>
				<path class="st9" d="M61.1,66.9h9.7l10.1,0.2c0,0-2.4-4.3-10.1-3.9C63.1,63.7,62.5,65.5,61.1,66.9z"/>
			</g>
			<g>
				<path class="st9" d="M58.4,33.3c0,0,7.9,10.1,19.2,8.3L75,38c0,0,6.9,3.2,18.4,0.2c0,0,0.8-12.5-18.8-15.4c0,0,9.3,0.8,15.8,4.7
					c0,0-19-19.8-34.6,0c0,0-8.9,0.2-9.3,10.1c-0.4,9.9,2,13.6,2,13.6s2-1.6,2.6,1.8c0.6,3.4,0,8.7,2.2,13.6l3.6-2.6
					c0,0-4.7-10.9-3.6-20C53.4,43.9,59.2,42.6,58.4,33.3z"/>
				<path class="st9" d="M90.6,36.4c0,0,2.6,22.3-3.6,31.2l-2.4-3c0,0,6.9-12.1,1.6-26.7L90.6,36.4z"/>
			</g>
		</g>
	</g>
	<g class="st1">
		<g class="st2">
			<g>
				<path class="st30" d="M45.1,98.3c0,0-7-5.9-2.9-15.5c4.1-9.6,16.3-11.1,27.9-11.1c17.8,0,39.1,6.1,24.9,26.6
					C95,98.3,77.4,110,45.1,98.3z"/>
			</g>
		</g>
		<g class="st2">
			<g>
				<path class="st31" d="M62.6,86.8c-0.2,0-0.4-0.1-0.5-0.4c-1.3-4-4.9-6.6-4.9-6.6c-0.2-0.2-0.3-0.5-0.1-0.7
					c0.2-0.2,0.5-0.3,0.7-0.1c0.2,0.1,3.9,2.8,5.3,7.1c0.1,0.3-0.1,0.6-0.3,0.7C62.7,86.8,62.7,86.8,62.6,86.8z"/>
			</g>
		</g>
		<g class="st2">
			<g>
				<path class="st31" d="M70.2,93.9c-0.2,0-0.3-0.1-0.4-0.2c-4.6-7.2-18.5-9.3-18.6-9.3c-0.3,0-0.5-0.3-0.4-0.6
					c0-0.3,0.3-0.5,0.6-0.4c0.6,0.1,14.4,2.2,19.3,9.8c0.2,0.2,0.1,0.6-0.2,0.7C70.4,93.9,70.3,93.9,70.2,93.9z"/>
			</g>
		</g>
		<g class="st2">
			<g>
				<path class="st30" d="M118.1,116.7H23.6c0,0,0.9-11.8,6.7-14.1c2.3-0.9,7.6-3.6,13.1-6.4c7.7-3.9,15.7-8.2,16.5-8.6
					c0,0,0.1,0,0.1,0l0.7,0.2c0.9,0.2,1.8,0.4,2.7,0.5c0.9,0.1,1.8,0.3,2.7,0.4c5,0.5,10,0.1,14.9-1c0,0,0,0,0,0
					c0,0,6.2,3.2,13.1,6.7c0.9,0.4,1.8,0.9,2.7,1.3c6.1,3,12.2,6,14.7,7C117.1,104.9,118.1,116.7,118.1,116.7z"/>
			</g>
		</g>
		<g class="st2">
			<g>
				<g>
					<g>
						<g>
							<g>
								<path class="st31" d="M75.2,101.7c-5.2,0-9.5-1.4-12.6-2.8c-4.8-2.2-7.6-5-7.7-5.1c-0.2-0.2-0.2-0.5,0-0.7
									c0.2-0.2,0.5-0.2,0.7,0c0,0,2.8,2.7,7.5,4.9c4.3,2,11.2,3.9,19.6,1.7c0.3-0.1,0.5,0.1,0.6,0.4c0.1,0.3-0.1,0.5-0.4,0.6
									C80.2,101.4,77.6,101.7,75.2,101.7z"/>
							</g>
						</g>
					</g>
				</g>
			</g>
			<g>
				<g>
					<g>
						<g>
							<g>
								<path class="st31" d="M72.8,106.5c-1.7,0-3.5-0.2-5.5-0.6c-0.3-0.1-0.4-0.3-0.4-0.6c0.1-0.3,0.3-0.4,0.6-0.4
									c9.8,2.1,16-2.3,16-2.3c0.2-0.2,0.5-0.1,0.7,0.1c0.2,0.2,0.1,0.5-0.1,0.7C83.9,103.6,79.7,106.5,72.8,106.5z"/>
							</g>
						</g>
					</g>
				</g>
			</g>
		</g>
		<g class="st2">
			<g>
				<g>
					<g>
						<g>
							<g>
								<g>
									<path class="st32" d="M81.5,90c0,0-1.9,5.8-10.4,5.8c-9.9,0-12.3-5.3-12.3-5.3c0.9-2.3,1.5-4.4,1.9-6.3h0
										c0.7-3.5,0.8-6.2,0.8-7.9l17.5-0.7c0.2,1.5,0.4,3.2,0.7,5C80.5,85.3,81.5,90,81.5,90z"/>
								</g>
							</g>
						</g>
					</g>
				</g>
				<g>
					<g>
						<g>
							<g>
								<g>
									<path class="st33" d="M79.7,80.7c-2.7,1.9-8.6,4.7-19,3.6c0.7-3.5,0.8-6.2,0.8-7.9l17.5-0.7C79.1,77.2,79.4,78.9,79.7,80.7
										z"/>
								</g>
							</g>
						</g>
					</g>
				</g>
			</g>
			<g>
				<g>
					<g>
						<g>
							<g>
								<g>
									<g>
										<path class="st32" d="M54.8,53.6c0,0-5.4-7.4-9.6-3C41,55,49.1,70.1,56.5,66.8L54.8,53.6z"/>
									</g>
								</g>
							</g>
						</g>
					</g>
					<g>
						<g>
							<g>
								<g>
									<g>
										<path class="st34" d="M52.3,62.3c-0.2,0-0.3-0.1-0.4-0.3c-0.7-5.1-4.8-8.2-4.8-8.3c-0.2-0.1-0.2-0.4-0.1-0.5
											c0.1-0.2,0.4-0.2,0.5-0.1c0.2,0.1,4.3,3.4,5.1,8.8C52.7,62.1,52.5,62.3,52.3,62.3C52.3,62.3,52.3,62.3,52.3,62.3z"/>
									</g>
								</g>
							</g>
						</g>
					</g>
					<g>
						<g>
							<g>
								<g>
									<g>
										<path class="st34" d="M51.1,58.6c-0.1,0-0.2-0.1-0.3-0.2c-0.5-0.8-2.2-0.9-2.7-0.8c-0.2,0-0.4-0.1-0.4-0.3
											c0-0.2,0.1-0.4,0.3-0.4c0.1,0,2.5-0.1,3.4,1.2c0.1,0.2,0.1,0.4-0.1,0.5C51.3,58.6,51.2,58.6,51.1,58.6z"/>
									</g>
								</g>
							</g>
						</g>
					</g>
				</g>
			</g>
			<g>
				<g>
					<g>
						<g>
							<g>
								<g>
									<g>
										<path class="st32" d="M87.7,53.6c0,0,5.4-7.4,9.6-3c4.2,4.4-3.9,19.5-11.3,16.2L87.7,53.6z"/>
									</g>
								</g>
							</g>
						</g>
					</g>
					<g>
						<g>
							<g>
								<g>
									<g>
										<path class="st34" d="M90.3,62.3C90.3,62.3,90.3,62.3,90.3,62.3c-0.3,0-0.4-0.2-0.4-0.4c0.8-5.4,4.9-8.6,5.1-8.8
											c0.2-0.1,0.4-0.1,0.5,0.1c0.1,0.2,0.1,0.4-0.1,0.5c0,0-4.1,3.2-4.8,8.3C90.7,62.2,90.5,62.3,90.3,62.3z"/>
									</g>
								</g>
							</g>
						</g>
					</g>
					<g>
						<g>
							<g>
								<g>
									<g>
										<path class="st34" d="M91.4,58.6c-0.1,0-0.1,0-0.2-0.1c-0.2-0.1-0.2-0.3-0.1-0.5c0.9-1.3,3.3-1.2,3.4-1.2
											c0.2,0,0.4,0.2,0.3,0.4c0,0.2-0.2,0.4-0.4,0.3c-0.6,0-2.2,0-2.7,0.8C91.7,58.6,91.6,58.6,91.4,58.6z"/>
									</g>
								</g>
							</g>
						</g>
					</g>
				</g>
			</g>
			<g>
				<g>
					<g>
						<g>
							<g>
								<path class="st32" d="M75.8,32.2c-15.1-3.7-28.8,10-25.4,25.1c2.4,10.7,7.7,24.2,20.7,24.5C84.6,82.2,90.1,67.5,92,56.3
									c1.8-10.2-4.2-20.3-14-23.5C77.3,32.6,76.6,32.4,75.8,32.2z"/>
							</g>
						</g>
					</g>
				</g>
			</g>
			<g>
				<g>
					<path class="st34" d="M72.2,66.6c-0.6,0-1.3-0.2-2.1-0.5c-0.2-0.1-0.3-0.3-0.3-0.6l1.1-8.3c0-0.3,0.3-0.5,0.6-0.5
						c0.3,0,0.5,0.3,0.5,0.6l-1,7.9c1.1,0.4,1.9,0.4,2.6-0.1c0.2-0.2,0.6-0.1,0.7,0.1c0.2,0.2,0.1,0.6-0.1,0.7
						C73.5,66.4,72.9,66.6,72.2,66.6z"/>
				</g>
			</g>
			<g>
				<g>
					<path class="st34" d="M71.2,72c-3.1,0-5.4-1.3-5.4-1.3c-0.3-0.1-0.3-0.5-0.2-0.7c0.1-0.3,0.5-0.3,0.7-0.2
						c0.3,0.1,6.2,3.3,11.3-1.4c0.2-0.2,0.6-0.2,0.8,0c0.2,0.2,0.2,0.6,0,0.8C75.9,71.4,73.4,72,71.2,72z"/>
				</g>
			</g>
			<g>
				<g>
					<path class="st34" d="M72.1,75.1c-1.2,0-2.2-0.3-2.2-0.3c-0.3-0.1-0.4-0.4-0.3-0.7c0.1-0.3,0.4-0.4,0.7-0.3l0,0
						c0,0,2.4,0.7,4-0.2c0.3-0.1,0.6-0.1,0.7,0.2c0.1,0.3,0.1,0.6-0.2,0.7C73.9,74.9,72.9,75.1,72.1,75.1z"/>
				</g>
			</g>
			<g>
				<g>
					<path class="st33" d="M60.8,51.4c1.1-0.6,2.8-1.4,4.4-1.6c0.9-0.1,1.4-1,1.1-1.8l-0.1-0.2c-0.2-0.6-0.8-1-1.4-0.9
						c-1.5,0.2-4,0.7-5.7,2.3c-0.4,0.4-0.5,0.9-0.3,1.4l0,0C59.1,51.4,60.1,51.8,60.8,51.4z"/>
				</g>
			</g>
			<g>
				<g>
					<path class="st33" d="M82.9,51.4c-1.1-0.6-2.8-1.4-4.4-1.6c-0.9-0.1-1.4-1-1.1-1.8l0.1-0.2c0.2-0.6,0.8-1,1.4-0.9
						c1.5,0.2,4,0.7,5.7,2.3c0.4,0.4,0.5,0.9,0.3,1.4l0,0C84.6,51.4,83.6,51.8,82.9,51.4z"/>
				</g>
			</g>
			<g class="st35">
				<g>
					<path class="st34" d="M64.7,61c0,1.3-2.4,2.4-5.4,2.4c-3,0-5.4-1.1-5.4-2.4c0-1.3,2.4-2.4,5.4-2.4C62.3,58.6,64.7,59.7,64.7,61
						z"/>
				</g>
			</g>
			<g class="st35">
				<g>
					<path class="st34" d="M90.1,61c0,1.3-2.4,2.4-5.4,2.4c-3,0-5.4-1.1-5.4-2.4c0-1.3,2.4-2.4,5.4-2.4C87.7,58.6,90.1,59.7,90.1,61
						z"/>
				</g>
			</g>
			<g>
				<g>
					<g>
						<g>
							<g>
								<path class="st33" d="M51,59.7c0,0-2.8-15.6-2-19.2c0.9-3.6,2.7-2.9,2.7-2.9S36.5,25,44.1,17.9c5.5-5.1,11.9,5.9,11.9,5.9
									s-3.1-10.8,1.3-12.3c5.6-1.9,8.1,11.1,8.1,11.1s-0.5-9.7,4.1-9.5c6.3,0.3,2.7,7.5,9.5,10.3C85.7,26.2,96,27.7,92.3,39
									c0,0,5-0.2-1.2,20.1l0,0c-1.6-2.2-2.4-4.9-2.3-7.7c0.1-2.1,0.1-4.5-0.3-6c0,0-3.9-2.7-3.7-6.7c0,0-13.7,8.1-26.3,0.9
									c0,0,0.8,4.7-3.2,5.4c0,0-1.3,3-1.7,7.4c-0.2,2.5-1,4.9-2.4,7.1L51,59.7z"/>
							</g>
						</g>
					</g>
				</g>
			</g>
			<g>
				<g>
					<g>
						<g>
							<g>
								<path class="st33" d="M91,31.9c0,0,2.2-7.4,5.7-5.5c2.5,1.3-3.3,7-3.3,7s4.9-2.6,7.3-0.8c2.4,1.9-4,4.1-7.7,3.4
									C89.3,35.4,91,31.9,91,31.9z"/>
							</g>
						</g>
					</g>
				</g>
			</g>
			<g>
				<g>
					<g>
						<g>
							<g>
								<g>
									<g>
										<path class="st33" d="M65.1,55.5c0,1.4-0.5,2.6-1.2,2.6c-0.7,0-1.3-1.1-1.3-2.6c0-1.4,0.5-2.6,1.2-2.6
											C64.5,52.9,65.1,54.1,65.1,55.5z"/>
									</g>
								</g>
							</g>
						</g>
					</g>
				</g>
				<g>
					<g>
						<g>
							<g>
								<g>
									<g>
										<path class="st33" d="M78,55.5c0,1.4,0.5,2.6,1.2,2.6c0.7,0,1.3-1.1,1.3-2.6c0-1.4-0.5-2.6-1.2-2.6
											C78.6,52.9,78,54.1,78,55.5z"/>
									</g>
								</g>
							</g>
						</g>
					</g>
				</g>
			</g>
		</g>
		<g class="st2">
			<g>
				<path class="st10" d="M57,101.9v14.8h-1.1v-14.8c0-0.1,0-0.2,0.1-0.3c0.1-0.1,0.3-0.2,0.4-0.2c0.3,0,0.5,0.2,0.5,0.4
					C57,101.8,57,101.8,57,101.9z"/>
			</g>
		</g>
		<g class="st2">
			<g>
				<path class="st10" d="M86.6,101.9v14.8h-1.1v-14.8c0-0.3,0.2-0.5,0.5-0.5c0.2,0,0.4,0.2,0.5,0.4
					C86.6,101.8,86.6,101.8,86.6,101.9z"/>
			</g>
		</g>
	</g>
	<g>
		<g>
			<path class="st33" d="M51.9,65.6c0,0-2.9,7.2-1.3,9.7c1.6,2.5,4.7-2.4,4.7-2.4s-2.5,8.9,1,9.8c3.5,0.9,7.2-6.7,7.2-6.7
				S56.9,62.4,51.9,65.6z"/>
		</g>
		<g>
			<path class="st33" d="M89.3,65.6c0,0,2.9,7.2,1.3,9.7c-1.6,2.5-4.7-2.4-4.7-2.4s2.5,8.9-1,9.8c-3.5,0.9-7.2-6.7-7.2-6.7
				S84.3,62.4,89.3,65.6z"/>
		</g>
		<g>
			<g>
				<path class="st36" d="M117.8,117H23.2c0,0,0.1-1.1,0.4-2.6c0.1-0.5,0.2-1.1,0.3-1.7c0.3-1.2,0.6-2.4,1.1-3.7
					c0.2-0.6,0.5-1.2,0.7-1.7c0.7-1.5,1.7-2.8,2.9-3.7c0.4-0.3,0.8-0.5,1.2-0.7c0.6-0.2,1.4-0.6,2.3-1c2-0.9,4.6-2.2,7.5-3.7
					c1.1-0.5,2.2-1.1,3.3-1.7c0,0,0.1,0,0.1,0c2.4-1.2,4.8-2.5,7.1-3.7c0.7-0.4,1.4-0.8,2.1-1.1c0.4-0.2,0.8-0.4,1.2-0.6
					c0.1,0,0.1-0.1,0.2-0.1c3.1-1.6,5.3-2.8,5.8-3.1c0,0,0,0,0,0c0,0,0,0,0,0c0,0,0.1,0,0.1,0l0.7,0.2c0.9,0.2,1.8,0.4,2.7,0.5
					c0.9,0.1,1.8,0.3,2.7,0.4c5,0.5,10,0.1,14.9-1c0,0,0,0,0,0c0,0,2.2,1.2,5.5,2.8c0.3,0.1,0.5,0.3,0.8,0.4
					c1.1,0.5,2.2,1.1,3.4,1.7c1.1,0.5,2.2,1.1,3.4,1.7c0.9,0.4,1.8,0.9,2.7,1.3c0.4,0.2,0.8,0.4,1.2,0.6c1.2,0.6,2.3,1.2,3.5,1.7
					c2.9,1.4,5.6,2.7,7.6,3.7c1,0.4,1.8,0.8,2.4,1c0.4,0.2,0.9,0.4,1.2,0.7c1.2,0.9,2.1,2.2,2.9,3.7c0.3,0.6,0.5,1.1,0.7,1.7
					c0.5,1.2,0.8,2.5,1.1,3.7c0.1,0.6,0.3,1.2,0.3,1.7C117.7,115.9,117.8,117,117.8,117z"/>
			</g>
		</g>
		<g>
			<g>
				<path class="st37" d="M90.4,92.8H50.1c1.2-0.6,2.3-1.2,3.3-1.7H87C88,91.6,89.2,92.2,90.4,92.8z"/>
			</g>
			<g>
				<path class="st37" d="M101.1,98.2H39.7c1.1-0.5,2.2-1.1,3.3-1.7c0,0,0.1,0,0.1,0h54.6C98.8,97.1,100,97.6,101.1,98.2z"/>
			</g>
			<g>
				<path class="st37" d="M112.4,103.6H28.6c0.4-0.3,0.8-0.5,1.2-0.7c0.6-0.2,1.4-0.6,2.3-1h76.5c1,0.4,1.8,0.8,2.4,1
					C111.5,103.1,112,103.3,112.4,103.6z"/>
			</g>
			<g>
				<path class="st37" d="M116,109H25c0.2-0.6,0.5-1.2,0.7-1.7h89.4C115.5,107.8,115.7,108.4,116,109z"/>
			</g>
			<g>
				<path class="st37" d="M117.4,114.3H23.6c0.1-0.5,0.2-1.1,0.3-1.7h93.1C117.2,113.2,117.3,113.8,117.4,114.3z"/>
			</g>
		</g>
		<g>
			<path class="st37" d="M86.2,90.7c-1.1,3.8-5.8,9.8-15.7,9.8c-10.3,0-16-5.6-18.2-8.8c0.4-0.2,0.8-0.4,1.2-0.6
				c0.1,0,0.1-0.1,0.2-0.1c3.1-1.6,5.3-2.8,5.8-3.1c0,0,0,0,0,0c0,0,0,0,0,0c0,0,0.1,0,0.1,0l0.7,0.2c0.9,0.2,1.8,0.4,2.7,0.5
				c0.9,0.1,1.8,0.3,2.7,0.4c5,0.5,10,0.1,14.9-1c0,0,0,0,0,0C80.7,87.9,82.9,89,86.2,90.7z"/>
		</g>
		<g>
			<g>
				<g>
					<g>
						<g>
							<g>
								<g>
									<path class="st32" d="M81.2,90.3c0,0-1.9,5.8-10.4,5.8c-9.9,0-12.3-5.3-12.3-5.3c0.9-2.3,1.5-4.4,1.9-6.3h0
										c0.7-3.5,0.8-6.2,0.8-7.9l17.5-0.7c0.2,1.5,0.4,3.2,0.7,5C80.1,85.6,81.2,90.3,81.2,90.3z"/>
								</g>
							</g>
						</g>
					</g>
				</g>
				<g>
					<g>
						<g>
							<g>
								<g>
									<path class="st33" d="M79.3,80.9c-2.7,1.9-8.6,4.7-19,3.6c0.7-3.5,0.8-6.2,0.8-7.9l17.5-0.7C78.8,77.4,79,79.2,79.3,80.9z"
										/>
								</g>
							</g>
						</g>
					</g>
				</g>
			</g>
			<g>
				<g>
					<g>
						<g>
							<g>
								<g>
									<g>
										<path class="st32" d="M54.5,53.9c0,0-5.4-7.4-9.6-3c-4.2,4.4,3.9,19.5,11.3,16.2L54.5,53.9z"/>
									</g>
								</g>
							</g>
						</g>
					</g>
					<g>
						<g>
							<g>
								<g>
									<g>
										<path class="st34" d="M51.9,62.6c-0.2,0-0.3-0.1-0.4-0.3c-0.7-5.1-4.8-8.2-4.8-8.3c-0.2-0.1-0.2-0.4-0.1-0.5
											c0.1-0.2,0.4-0.2,0.5-0.1c0.2,0.1,4.3,3.4,5.1,8.8C52.3,62.3,52.2,62.5,51.9,62.6C52,62.5,51.9,62.6,51.9,62.6z"/>
									</g>
								</g>
							</g>
						</g>
					</g>
					<g>
						<g>
							<g>
								<g>
									<g>
										<path class="st34" d="M50.8,58.9c-0.1,0-0.2-0.1-0.3-0.2c-0.5-0.8-2.2-0.9-2.7-0.8c-0.2,0-0.4-0.1-0.4-0.3
											c0-0.2,0.1-0.4,0.3-0.4c0.1,0,2.5-0.1,3.4,1.2c0.1,0.2,0.1,0.4-0.1,0.5C50.9,58.9,50.9,58.9,50.8,58.9z"/>
									</g>
								</g>
							</g>
						</g>
					</g>
				</g>
			</g>
			<g>
				<g>
					<g>
						<g>
							<g>
								<g>
									<g>
										<path class="st32" d="M87.9,53.9c0,0,5.4-7.4,9.6-3c4.2,4.4-3.9,19.5-11.3,16.2L87.9,53.9z"/>
									</g>
								</g>
							</g>
						</g>
					</g>
					<g>
						<g>
							<g>
								<g>
									<g>
										<path class="st34" d="M90.5,62.6C90.5,62.6,90.5,62.5,90.5,62.6c-0.3,0-0.4-0.2-0.4-0.4c0.8-5.4,4.9-8.6,5.1-8.8
											c0.2-0.1,0.4-0.1,0.5,0.1c0.1,0.2,0.1,0.4-0.1,0.5c0,0-4.1,3.2-4.8,8.3C90.8,62.4,90.7,62.6,90.5,62.6z"/>
									</g>
								</g>
							</g>
						</g>
					</g>
					<g>
						<g>
							<g>
								<g>
									<g>
										<path class="st34" d="M91.6,58.9c-0.1,0-0.1,0-0.2-0.1c-0.2-0.1-0.2-0.3-0.1-0.5c0.9-1.3,3.3-1.2,3.4-1.2
											c0.2,0,0.4,0.2,0.3,0.4c0,0.2-0.2,0.4-0.4,0.3c-0.6,0-2.2,0-2.7,0.8C91.9,58.8,91.7,58.9,91.6,58.9z"/>
									</g>
								</g>
							</g>
						</g>
					</g>
				</g>
			</g>
			<g>
				<g>
					<g>
						<g>
							<g>
								<path class="st32" d="M75.5,32.4c-15.1-3.7-25.6,7.5-24.2,24.7c0.9,10.9,6.5,24.7,19.4,25c13.5,0.3,20.6-12.7,20.6-27.8
									c0-11.6-3.9-18-13.8-21.3C76.9,32.8,76.2,32.6,75.5,32.4z"/>
							</g>
						</g>
					</g>
				</g>
			</g>
			<g>
				<path class="st33" d="M49.3,41.4c0,0-3,6.9-1.9,8.2c0.9,1.1,2.3,0.3,2.3,0.3s-0.6,7.5,2.6,7.8c3.2,0.3,2.8-13.9,2.8-13.9
					s5.3,0.1,4.3-4.2c0,0,13.7,2.6,24.3-0.2c0,0-0.4,4.2,3.1,4.8c0,0-2.1,12.8,1.7,13.8c3.8,0.9,3.6-7.9,3.6-7.9s1.7,0,2.3-0.6
					c1.6-1.5-1-9.8-5.1-15.3C84.8,28.3,62,16.9,49.3,41.4z"/>
			</g>
			<g>
				<g>
					<path class="st38" d="M94.3,39.8c0,0-1-0.2-2.8-0.5c-0.2,0-0.4-0.1-0.6-0.1c-1.9-0.3-4.4-0.6-7.5-0.9c-0.2,0-0.4,0-0.5,0
						c-2.2-0.2-4.7-0.3-7.3-0.4c-0.2,0-0.4,0-0.5,0c-2.3,0-4.7,0-7.3,0.1c-0.2,0-0.4,0-0.5,0c-2.4,0.1-4.8,0.3-7.4,0.6
						c-0.2,0-0.4,0-0.5,0.1c-2.5,0.3-5,0.7-7.6,1.2c-0.2,0-0.4,0.1-0.6,0.1c-1,0.2-1.9,0.4-2.9,0.6c0,0,1.1-8.1,7.7-13.7
						c0.4-0.3,0.7-0.6,1.1-0.9c1.8-1.3,3.9-2.4,6.4-3.2c0.2-0.1,0.4-0.1,0.6-0.2c1.4-0.4,2.9-0.6,4.6-0.8h0c0.2,0,0.4,0,0.5,0
						c0.6,0,1.2-0.1,1.8-0.1c0.8,0,1.7,0,2.4,0.1c0.2,0,0.4,0,0.5,0c1.7,0.2,3.2,0.4,4.6,0.8c0.2,0.1,0.4,0.1,0.6,0.2h0
						c2.6,0.8,4.7,1.9,6.5,3.2l0,0c0.4,0.3,0.8,0.6,1.1,0.9c0,0,0,0,0,0C93.1,32.3,94.3,39.8,94.3,39.8z"/>
				</g>
				<g>
					<g>
						<g>
							<path class="st39" d="M57,26c-2.1,3.7-4.5,8.6-5.3,13.8c-0.2,1-0.2,1.9-0.3,2.9l-0.5,0c0-0.9,0.1-1.8,0.3-2.7
								c0.7-4.8,2.8-9.4,4.8-13C56.3,26.6,56.6,26.3,57,26z"/>
						</g>
					</g>
					<g>
						<g>
							<path class="st39" d="M64.1,22.6c-1.4,3.3-3.5,9.4-4.3,15.9c-0.2,1.4-0.3,2.7-0.3,4.1l-0.5,0c0-1.4,0.1-2.7,0.3-4
								c0.8-6.3,2.8-12.3,4.2-15.7C63.7,22.8,63.9,22.7,64.1,22.6z"/>
						</g>
					</g>
					<g>
						<g>
							<path class="st39" d="M69.2,21.9c-0.4,3-1.2,9.3-1.5,16c-0.1,1.6-0.1,3.1-0.1,4.7l-0.5,0c0-1.6,0.1-3.2,0.1-4.7
								c0.3-6.7,1.1-12.9,1.5-16h0C68.9,21.9,69,21.9,69.2,21.9z"/>
						</g>
					</g>
					<g>
						<g>
							<path class="st39" d="M75.6,42.6l-0.5,0c0-1.6-0.1-3.2-0.1-4.8c-0.3-6.7-1.1-12.9-1.5-15.9c0.2,0,0.4,0,0.5,0
								c0.4,3.1,1.2,9.2,1.5,15.9C75.6,39.4,75.6,41,75.6,42.6z"/>
						</g>
					</g>
					<g>
						<g>
							<path class="st39" d="M83.7,42.6l-0.5,0c0-1.5-0.1-3-0.3-4.4C82,31.9,80,26,78.6,22.8c0.2,0.1,0.4,0.1,0.6,0.2h0
								c1.4,3.4,3.3,9.2,4.1,15.3C83.6,39.7,83.7,41.1,83.7,42.6z"/>
						</g>
					</g>
					<g>
						<g>
							<path class="st39" d="M91.8,42.6l-0.5,0c0-1.2-0.2-2.3-0.4-3.5c-0.9-4.8-3.1-9.5-5.1-13c0.4,0.3,0.8,0.6,1.1,0.9c0,0,0,0,0,0
								c1.9,3.4,3.8,7.7,4.6,12.2C91.6,40.4,91.8,41.5,91.8,42.6z"/>
						</g>
					</g>
				</g>
				<g>
					<path class="st39" d="M47.1,40.5c0,0-1.3,2.7,0.2,6.6c0,0,15.1-9,47.6-0.6c0,0,2-2.3,0-6.5C95,40.1,69.9,29,47.1,40.5z"/>
				</g>
			</g>
			<g>
				<g>
					<path class="st34" d="M71.9,66.8c-0.6,0-1.3-0.2-2.1-0.5c-0.2-0.1-0.3-0.3-0.3-0.6l1.1-8.3c0-0.3,0.3-0.5,0.6-0.5
						c0.3,0,0.5,0.3,0.5,0.6l-1,7.9c1.1,0.4,1.9,0.4,2.6-0.1c0.2-0.2,0.6-0.1,0.7,0.1c0.2,0.2,0.1,0.6-0.1,0.7
						C73.1,66.6,72.5,66.8,71.9,66.8z"/>
				</g>
			</g>
			<g>
				<g>
					<path class="st34" d="M70.9,72.3c-3.1,0-5.4-1.3-5.4-1.3c-0.3-0.1-0.3-0.5-0.2-0.7c0.1-0.3,0.5-0.3,0.7-0.2
						c0.3,0.1,6.2,3.3,11.3-1.4c0.2-0.2,0.6-0.2,0.8,0c0.2,0.2,0.2,0.6,0,0.8C75.6,71.6,73,72.3,70.9,72.3z"/>
				</g>
			</g>
			<g>
				<g>
					<path class="st34" d="M71.7,75.3c-1.2,0-2.2-0.3-2.2-0.3c-0.3-0.1-0.4-0.4-0.3-0.7c0.1-0.3,0.4-0.4,0.7-0.3l0,0
						c0,0,2.4,0.7,4-0.2c0.3-0.1,0.6-0.1,0.7,0.2c0.1,0.3,0.1,0.6-0.2,0.7C73.5,75.2,72.6,75.3,71.7,75.3z"/>
				</g>
			</g>
			<g>
				<g>
					<path class="st33" d="M60.5,51.7c1.1-0.6,2.8-1.4,4.4-1.6c0.9-0.1,1.4-1,1.1-1.8L66,48c-0.2-0.6-0.8-1-1.4-0.9
						c-1.5,0.2-4,0.7-5.7,2.3c-0.4,0.4-0.5,0.9-0.3,1.4l0,0C58.8,51.7,59.7,52.1,60.5,51.7z"/>
				</g>
			</g>
			<g>
				<g>
					<path class="st33" d="M82.5,51.7c-1.1-0.6-2.8-1.4-4.4-1.6c-0.9-0.1-1.4-1-1.1-1.8L77,48c0.2-0.6,0.8-1,1.4-0.9
						c1.5,0.2,4,0.7,5.7,2.3c0.4,0.4,0.5,0.9,0.3,1.4l0,0C84.2,51.7,83.3,52.1,82.5,51.7z"/>
				</g>
			</g>
			<g class="st35">
				<g>
					<path class="st34" d="M64.4,61.2c0,1.3-2.4,2.4-5.4,2.4c-3,0-5.4-1.1-5.4-2.4c0-1.3,2.4-2.4,5.4-2.4
						C62,58.9,64.4,59.9,64.4,61.2z"/>
				</g>
			</g>
			<g class="st35">
				<g>
					<path class="st34" d="M89.7,61.2c0,1.3-2.4,2.4-5.4,2.4c-3,0-5.4-1.1-5.4-2.4c0-1.3,2.4-2.4,5.4-2.4
						C87.3,58.9,89.7,59.9,89.7,61.2z"/>
				</g>
			</g>
			<g>
				<g>
					<g>
						<g>
							<g>
								<g>
									<g>
										<path class="st33" d="M64.8,55.7c0,1.4-0.5,2.6-1.2,2.6c-0.7,0-1.3-1.1-1.3-2.6c0-1.4,0.5-2.6,1.2-2.6
											C64.2,53.1,64.7,54.3,64.8,55.7z"/>
									</g>
								</g>
							</g>
						</g>
					</g>
				</g>
				<g>
					<g>
						<g>
							<g>
								<g>
									<g>
										<path class="st33" d="M77.7,55.7c0,1.4,0.5,2.6,1.2,2.6c0.7,0,1.3-1.1,1.3-2.6c0-1.4-0.5-2.6-1.2-2.6
											C78.3,53.1,77.7,54.3,77.7,55.7z"/>
									</g>
								</g>
							</g>
						</g>
					</g>
				</g>
			</g>
		</g>
	</g>
</g>
<g id="Layer_2">
</g>
</svg>
