<?xml version="1.0" encoding="utf-8"?>
<!-- Generator: Adobe Illustrator 23.0.5, SVG Export Plug-In . SVG Version: 6.00 Build 0)  -->
<svg version="1.1" xmlns="http://www.w3.org/2000/svg" xmlns:xlink="http://www.w3.org/1999/xlink" x="0px" y="0px"
	 viewBox="0 0 141.7 141.7" style="enable-background:new 0 0 141.7 141.7;" xml:space="preserve">
<style type="text/css">
	.st0{fill:#51FCB6;}
	.st1{display:none;}
	.st2{display:inline;}
	.st3{fill:#853F38;}
	.st4{fill:#A9534F;}
	.st5{fill:#FFAC9D;}
	.st6{fill:#E08880;}
	.st7{fill:#438584;}
	.st8{fill:#5CA9A5;}
	.st9{fill:#352836;}
	.st10{fill:#FFFFFF;}
	.st11{fill:#FFEDEE;}
	.st12{opacity:0.1;fill:#352836;}
	.st13{fill:#5996BF;}
	.st14{fill:#6CBBE6;}
	.st15{fill:#FFDEBF;}
	.st16{fill:#DCB9A2;}
</style>
<g id="Layer_2">
	<rect x="0" y="0" class="st0" width="141.7" height="141.7"/>
</g>
<g id="Layer_1">
	<g class="st1">
		<g class="st2">
			<g>
				<path class="st3" d="M61.8,78c0,0-9.7,6.1-4.4,15.4c5.3,9.3,41.8,6.7,23-15.4C64.8,59.7,61.8,78,61.8,78z"/>
			</g>
			<g>
				<path class="st3" d="M97.3,54.4c0,0-4.2,5.1-3.4,10.1c1.2,7.3-9.9,16.9-21.3,13.7s0.8-24.5,0.8-24.5L97.3,54.4z"/>
				<path class="st3" d="M44.1,54.4c0,0,4.2,5.1,3.4,10.1c-1.2,7.3,9.9,16.9,21.3,13.7s-0.8-24.5-0.8-24.5L44.1,54.4z"/>
				<path class="st4" d="M73,70.3c5.2,0.1,10.5-0.9,15.2-3.3c2.5-1.3,4.2-3,5.7-5c0.5-4.1,3.4-7.6,3.4-7.6l-23.8-0.6
					c0,0-5.2,9-5.7,16.2C69.6,70.2,71.3,70.3,73,70.3z"/>
				<path class="st4" d="M47.5,63.6c7.8,4.1,16.8,6.6,25.5,6.7c0.2,0,0.4,0,0.6,0c-0.3-7.2-5.7-16.6-5.7-16.6l-23.8,0.6
					C44.1,54.4,47.8,58.9,47.5,63.6z"/>
			</g>
		</g>
		<g class="st2">
			<g>
				<path class="st5" d="M83.4,88.6c-5.4-2.9-3.9-17.1-3.9-17.1l-8,0.5v-0.5l-0.9,0.3l-0.9-0.3V72l-8-0.5c0,0,1.5,14.1-3.9,17.1
					c-5.4,2.9-38.3,4.4-34.9,37.1h46.9h1.7h46.9C121.8,93,88.8,91.5,83.4,88.6z"/>
				<path class="st6" d="M60.6,84.9c6.4-1,12.8-1.9,19.2-3c-0.9-4.9-0.3-10.5-0.3-10.5l-8,0.5v-0.5l-0.9,0.3l-0.9-0.3V72l-8-0.5
					C61.7,71.5,62.6,79.7,60.6,84.9z"/>
			</g>
			<g>
				<path class="st7" d="M94.3,91.1c-4.7,4.3-11.6,7.2-19.5,8l-4.3,15.3l-2.3-15.2c-8.6-0.5-16.1-3.5-21.1-8.1
					c-11.1,3.6-27.4,11.3-25,34.6h47.7h1.8h47.7C121.8,102.4,105.5,94.7,94.3,91.1z"/>
				<g>
					<path class="st8" d="M68.9,103.1l-0.6-3.9c-8.6-0.5-16.1-3.5-21.1-8.1c-1.9,0.6-3.9,1.3-5.9,2.2
						C45.2,98.7,55.9,102.6,68.9,103.1z"/>
					<path class="st8" d="M100.9,93.6c-2.2-1-4.5-1.9-6.6-2.5c-4.7,4.3-11.6,7.2-19.5,8l-1.1,4C86.3,102.6,96.8,98.8,100.9,93.6z"/>
				</g>
				<path class="st8" d="M69.6,118.1c0,1,0.8,1.8,1.8,1.8s1.8-0.8,1.8-1.8c0-1-0.8-1.8-1.8-1.8S69.6,117.1,69.6,118.1z"/>
			</g>
		</g>
		<g class="st2">
			<g>
				<g>
					<path class="st6" d="M54.9,50.8c-1.6-4.9-5.3-3.8-5.7-3.7c-0.4,0-4.2,0.6-3.6,5.7c0.7,5.1,3.7,7.9,6.5,7.1
						C55,59.5,56.5,55.7,54.9,50.8z"/>
					<path class="st6" d="M86.5,50.8c1.6-4.9,5.3-3.8,5.7-3.7c0.4,0,4.2,0.6,3.6,5.7c-0.7,5.1-3.7,7.9-6.5,7.1
						C86.4,59.5,84.9,55.7,86.5,50.8z"/>
					<path class="st5" d="M51.1,43.4c2-21.5,18.3-20.3,19.8-20.1c1.5-0.2,17.9-1.4,19.8,20.1c2,21.6-7.7,35.8-19.8,35
						C58.7,79.1,49.1,65,51.1,43.4z"/>
				</g>
				<g>
					<path class="st4" d="M50.4,47.4c0,0-1.1,28.3,15.6,31.4C82.7,82,93,68.1,91.5,46l-2.1-0.2c0,0-1.4,22.4-6.4,22.6
						c-5.1,0.2,2.4-7-7.3-7.4c-9.7-0.4-14.5-3.7-15.3,4.5c-0.5,5.5-7.3-3.9-8.1-18.5C51.5,32.5,50.4,47.4,50.4,47.4z"/>
					<path class="st3" d="M53.1,53.5c-0.4-2-0.7-4.2-0.8-6.5c-0.8-14.6-1.9,0.4-1.9,0.4s-0.1,3.1,0.3,7.3
						C51.5,54.3,52.3,53.9,53.1,53.5z"/>
					<path class="st3" d="M91.5,53.7c0.2-2.4,0.2-5,0-7.7l-2.1-0.2c0,0-0.2,3.1-0.7,6.9C89.7,53,90.6,53.4,91.5,53.7z"/>
				</g>
			</g>
			<g>
				<g>
					<path class="st6" d="M73.7,45.9c0.7,2,1.1,3.9,1.4,5.9c0.1,1,0.3,2,0.4,3c0.1,1,0.2,2,0.2,3l0,0.4l-0.3,0.2
						c-0.7,0.4-1.3,0.7-2,1.1c-0.7,0.3-1.4,0.7-2.1,0.9c0.5-0.6,1.1-1.1,1.6-1.6c0.6-0.5,1.1-1,1.7-1.5L74.4,58c-0.2-1-0.4-2-0.5-3
						c-0.1-1-0.2-2-0.3-3C73.5,50,73.5,47.9,73.7,45.9z"/>
				</g>
				<g>
					<path class="st9" d="M86.3,44.3c-1.1-0.4-2-0.7-2.8-1c-0.9-0.3-1.6-0.5-2.4-0.5c-0.7-0.1-1.5,0-2.3,0.2
						c-0.4,0.1-0.8,0.3-1.3,0.4c-0.5,0.2-0.9,0.4-1.5,0.5c0.1-0.5,0.4-1.1,0.6-1.5c0.3-0.4,0.7-0.9,1.2-1.3c0.9-0.7,2.2-1.1,3.5-1
						c1.2,0.1,2.4,0.7,3.2,1.4C85.5,42.2,86.1,43.2,86.3,44.3z"/>
				</g>
				<g>
					<path class="st9" d="M66,44.3c-1.1-0.4-2-0.7-2.8-1c-0.9-0.3-1.6-0.5-2.4-0.5c-0.7-0.1-1.5,0-2.3,0.2c-0.4,0.1-0.8,0.3-1.3,0.4
						c-0.5,0.2-0.9,0.4-1.5,0.5c0.1-0.5,0.4-1.1,0.6-1.5c0.3-0.4,0.7-0.9,1.2-1.3c0.9-0.7,2.2-1.1,3.5-1c1.2,0.1,2.4,0.7,3.2,1.4
						C65.1,42.2,65.7,43.2,66,44.3z"/>
				</g>
				<g>
					<path class="st9" d="M65.3,52.1c-0.4-0.9-0.8-1.7-1.3-2.3c-0.6-0.6-1.3-0.9-2.1-0.9c-0.8,0-1.5,0.2-2.1,0.8
						c-0.5,0.6-0.8,1.5-1,2.4c-0.3-0.9-0.3-2,0.3-3c0.3-0.5,0.7-0.9,1.2-1.2c0.5-0.2,1.1-0.3,1.6-0.3c1.1,0,2.2,0.6,2.8,1.5
						C65.3,50.1,65.5,51.1,65.3,52.1z"/>
				</g>
				<g>
					<path class="st9" d="M83.6,51.8c-0.4-0.9-0.8-1.7-1.3-2.3c-0.6-0.6-1.3-0.9-2.1-0.9c-0.8,0-1.5,0.2-2.1,0.8
						c-0.5,0.6-0.8,1.5-1,2.4c-0.3-0.9-0.3-2,0.3-3c0.3-0.5,0.7-0.9,1.2-1.2c0.5-0.2,1.1-0.3,1.6-0.3c1.1,0,2.2,0.6,2.8,1.5
						C83.6,49.8,83.8,50.8,83.6,51.8z"/>
				</g>
				<path class="st10" d="M79.3,64.4c-3.9,3.8-10.5,3.6-15.5,0.2"/>
			</g>
			<g>
				<g>
					<path class="st3" d="M71.2,26.3c0,0-11.8-2.1-13.7,5.3c-1.9,7.4,0.8,17.3-7.8,15.8c0,0-6.3,1.3-2.3,11.2
						c0,0-11.9-11.4-4.9-19.6c5.7-6.7,3.4-21.3,17.3-23.6C73.8,13.1,71.2,23.6,71.2,26.3z"/>
				</g>
				<g>
					<path class="st4" d="M71.2,26.3c0,0-11.8-2.1-13.7,5.3c-1.9,7.4,0.8,17.3-7.8,15.8c0,0-6.3,1.3-2.3,11.2
						c0,0-11.9-11.4-4.9-19.6c5.7-6.7,3.4-21.3,17.3-23.6C73.8,13.1,71.2,23.6,71.2,26.3z"/>
				</g>
				<g>
					<path class="st4" d="M70.1,26.3c0,0,11.8-2.1,13.7,5.3c1.9,7.4-0.8,17.3,7.8,15.8c0,0,6.3,1.3,2.3,11.2c0,0,11.9-11.4,4.9-19.6
						c-5.7-6.7-3.4-21.3-17.3-23.6C67.6,13.1,70.1,23.6,70.1,26.3z"/>
				</g>
				<g>
					<g>
						<path class="st4" d="M69.9,24.1c1.7,0,3.3,0.1,4.9,0.4c1.6,0.3,3.2,0.7,4.7,1.5c1.5,0.7,3,1.8,4,3.4c0.5,0.8,0.8,1.7,1,2.5
							c0.2,0.9,0.2,1.6,0.3,2.5c0.2,3.2-0.3,6.3-0.2,9.3c0.1,1.4,0.3,2.9,1.3,3.9c0.9,1,2.5,1.2,4,1.2l0,0l0,0
							c0.5,0.1,0.9,0.2,1.4,0.4c0.4,0.2,0.9,0.4,1.2,0.7c0.4,0.3,0.7,0.7,0.9,1.1c0.2,0.4,0.2,0.9,0.2,1.4c0-0.9-0.5-1.8-1.3-2.2
							c-0.7-0.5-1.6-0.7-2.5-0.7l0.1,0c-0.8,0.1-1.6,0.1-2.4,0c-0.8-0.1-1.7-0.4-2.4-1c-0.7-0.6-1.2-1.4-1.5-2.1
							c-0.3-0.8-0.5-1.6-0.6-2.4c-0.4-3.2-0.2-6.3-0.5-9.2c-0.1-0.7-0.2-1.5-0.3-2.1c-0.2-0.6-0.4-1.2-0.8-1.7
							c-0.7-1-1.8-1.8-3.1-2.4c-2.5-1.1-5.6-1.5-8.4-1.5L69.9,24.1z"/>
					</g>
				</g>
			</g>
		</g>
	</g>
	<g>
		<g>
			<g>
				<path class="st4" d="M82.9,90.5c-5.1-2.8-3.7-16.2-3.7-16.2l-7.6,0.5v-0.5l-0.8,0.2l-0.8-0.2v0.5l-7.6-0.5
					c0,0,1.4,13.4-3.7,16.2c-5.1,2.8-35.1,4.2-31.9,35.1h43.2h1.6h43.2C118,94.7,88,93.3,82.9,90.5z"/>
				<path class="st3" d="M61.2,87.1c6.1-0.9,12.2-1.8,18.2-2.8c-0.9-4.6-0.3-9.9-0.3-9.9l-7.6,0.5v-0.5l-0.8,0.2l-0.8-0.2v0.5
					l-7.6-0.5C62.3,74.3,63.1,82.1,61.2,87.1z"/>
			</g>
			<g>
				<g>
					<path class="st11" d="M89.3,91.8c-2.7,7.1-10,12.2-18.5,12.2s-15.8-5.1-18.5-12.2c-10.5,2.9-28.9,9-26.3,33.8h44h1.7h44
						C118.2,100.8,99.7,94.7,89.3,91.8z"/>
					<path class="st12" d="M108.4,101.5c-11.2,7.3-24.8,10.1-37.4,14.1c-11.8,3.8-23.8,7-35.8,10h80.3
						C116.8,114.1,113.4,106.5,108.4,101.5z"/>
				</g>
				<g>
					<g>
						<path class="st13" d="M91,92.3v33.3h24.5C118,102.2,101.7,95.4,91,92.3z"/>
						<path class="st13" d="M50.3,92.3c-10.6,3.1-26.8,9.9-24.3,33.3h24.3V92.3z"/>
					</g>
					<path class="st14" d="M50.6,92.3v33.3c0,0-12.3-20.9-11.7-28.1S49.4,89.9,50.6,92.3z"/>
					<path class="st14" d="M90.4,92.3v33.3c0,0,12.3-20.9,11.7-28.1C101.5,90.3,91.6,89.9,90.4,92.3z"/>
				</g>
			</g>
		</g>
		<g>
			<g>
				<path class="st3" d="M55.9,54.7c-1.5-4.6-5-3.6-5.4-3.5c-0.3,0-4,0.6-3.4,5.4c0.6,4.9,3.5,7.5,6.1,6.7
					C55.9,63,57.4,59.4,55.9,54.7z"/>
				<path class="st3" d="M85.8,54.7c1.5-4.6,5-3.6,5.4-3.5c0.3,0,4,0.6,3.4,5.4c-0.6,4.9-3.5,7.5-6.1,6.7
					C85.7,63,84.3,59.4,85.8,54.7z"/>
				<path class="st4" d="M52.2,47.7C54.1,27.3,69.6,28.4,71,28.6c1.5-0.2,17-1.3,18.8,19.1c1.9,20.5-7.3,33.9-18.8,33.1
					C59.5,81.6,50.4,68.2,52.2,47.7z"/>
			</g>
			<g>
				<g>
					<path class="st3" d="M73.7,50.1c0.7,1.8,1.1,3.7,1.4,5.6c0.1,0.9,0.3,1.9,0.4,2.9c0.1,1,0.1,1.9,0.2,2.9l0,0.5L75.3,62
						c-0.6,0.4-1.3,0.7-1.9,1c-0.7,0.3-1.3,0.6-2,0.9c0.5-0.6,1-1.1,1.5-1.6c0.5-0.5,1.1-1,1.6-1.4l-0.3,0.6
						c-0.2-0.9-0.4-1.9-0.5-2.8c-0.1-0.9-0.2-1.9-0.3-2.9C73.4,53.9,73.4,52,73.7,50.1z"/>
				</g>
				<path class="st10" d="M78.9,67.6c-3.7,3.6-9.9,3.4-14.7,0.2"/>
				<g>
					<path class="st9" d="M85.6,48.5l-2.7-0.9c-0.8-0.3-1.5-0.4-2.2-0.5c-0.7-0.1-1.3,0-2.1,0.2c-0.4,0-0.8,0.2-1.2,0.3
						c-0.4,0.1-0.9,0.3-1.4,0.5c0.1-0.5,0.3-1,0.6-1.5c0.3-0.4,0.6-0.9,1.1-1.2c0.9-0.7,2.1-1.1,3.3-1c1.2,0.1,2.3,0.6,3.1,1.4
						C84.8,46.6,85.4,47.5,85.6,48.5z"/>
				</g>
				<g>
					<path class="st9" d="M66.3,48.5l-2.7-0.9c-0.8-0.3-1.5-0.4-2.2-0.5c-0.7-0.1-1.3,0-2.1,0.2c-0.4,0-0.8,0.2-1.2,0.3
						c-0.4,0.1-0.9,0.3-1.4,0.5c0.1-0.5,0.3-1,0.6-1.5c0.3-0.4,0.6-0.9,1.1-1.2c0.9-0.7,2.1-1.1,3.3-1c1.2,0.1,2.3,0.6,3.1,1.4
						C65.5,46.6,66.1,47.5,66.3,48.5z"/>
				</g>
				<g>
					<path class="st9" d="M65.7,55.9c-0.3-0.8-0.7-1.6-1.3-2.2c-0.5-0.6-1.2-0.9-2-0.8c-0.8,0-1.4,0.2-1.9,0.7
						c-0.5,0.6-0.8,1.4-1,2.3c-0.3-0.9-0.3-1.9,0.2-2.8c0.2-0.5,0.7-0.9,1.2-1.1c0.5-0.2,1-0.3,1.6-0.3c1,0,2.2,0.6,2.7,1.5
						C65.7,54,65.9,55,65.7,55.9z"/>
				</g>
				<g>
					<path class="st9" d="M83.1,55.7c-0.3-0.8-0.7-1.6-1.3-2.2c-0.5-0.6-1.2-0.9-2-0.8c-0.8,0-1.4,0.2-1.9,0.7
						c-0.5,0.6-0.8,1.4-1,2.3c-0.3-0.9-0.3-1.9,0.2-2.8c0.2-0.5,0.7-0.9,1.2-1.1c0.5-0.2,1-0.3,1.6-0.3c1,0,2.2,0.6,2.7,1.5
						C83.1,53.7,83.2,54.7,83.1,55.7z"/>
				</g>
			</g>
			<g>
				<path class="st15" d="M90.6,32c-1-4.2-3.5-5.2-4.7-5.5c-0.7-10.8-29.5-12.7-29.8-10.7c-0.4,2.2,10.2,5.8,10.2,5.8s-19-5-18-0.6
					c0.8,3.6,8.5,3.2,11.3,2.9c-4,0.5-17.7,2.7-11.5,8.9c0.5,0.5,1.1,0.9,1.6,1.3c-0.6,7.7,1.7,25.7,1.7,25.7H53l-0.6-12.4
					c3.1-0.6,4.5-8,5-11.2c5.2,0.1,10.5-1.7,12.5-2.4c-1.2,0.5-3,1.8-1,3.7c2.1,1.9,9.5-0.4,13.2-1.8c0.7,2.9,2.9,11.1,6.2,11.8
					l-0.6,12.4h1.6C89.2,59.7,92,37.6,90.6,32z"/>
				<path class="st16" d="M90.6,32c-1-4.2-3.5-5.2-4.7-5.5c-0.1-2-1.2-3.6-2.9-5.1c-0.9,7.3-6.2,13.5-13,16.5
					c2.9,0.7,8.8-1.2,12-2.3c0.7,2.9,2.9,11.1,6.2,11.8l-0.6,12.4h1.6C89.2,59.7,92,37.6,90.6,32z"/>
			</g>
		</g>
	</g>
</g>
</svg>
