<?xml version="1.0" encoding="utf-8"?>
<!-- Generator: Adobe Illustrator 23.0.5, SVG Export Plug-In . SVG Version: 6.00 Build 0)  -->
<svg version="1.1" xmlns="http://www.w3.org/2000/svg" xmlns:xlink="http://www.w3.org/1999/xlink" x="0px" y="0px"
	 viewBox="0 0 141.7 141.7" style="enable-background:new 0 0 141.7 141.7;" xml:space="preserve">
<style type="text/css">
	.st0{fill:#FF6969;}
	.st1{fill:#853F38;}
	.st2{fill:#A9534F;}
	.st3{fill:#FFAC9D;}
	.st4{fill:#E08880;}
	.st5{fill:#438584;}
	.st6{fill:#5CA9A5;}
	.st7{fill:#352836;}
	.st8{fill:#FFFFFF;}
</style>
<g id="Layer_2">
	<rect x="-0.1" class="st0" width="141.7" height="141.7"/>
</g>
<g id="Layer_1">
	<g>
		<g>
			<g>
				<path class="st1" d="M61.6,77c0,0-9.7,6.1-4.4,15.4c5.3,9.3,41.8,6.7,23-15.4C64.7,58.7,61.6,77,61.6,77z"/>
			</g>
			<g>
				<path class="st1" d="M97.1,53.4c0,0-4.2,5.1-3.4,10.1c1.2,7.3-9.9,16.9-21.3,13.7c-11.4-3.2,0.8-24.5,0.8-24.5L97.1,53.4z"/>
				<path class="st1" d="M43.9,53.4c0,0,4.2,5.1,3.4,10.1c-1.2,7.3,9.9,16.9,21.3,13.7C80,74,67.7,52.7,67.7,52.7L43.9,53.4z"/>
				<path class="st2" d="M72.9,69.3c5.2,0.1,10.5-0.9,15.2-3.3c2.5-1.3,4.2-3,5.7-5c0.5-4.1,3.4-7.6,3.4-7.6l-23.8-0.6
					c0,0-5.2,9-5.7,16.2C69.4,69.1,71.1,69.3,72.9,69.3z"/>
				<path class="st2" d="M47.4,62.6c7.8,4.1,16.8,6.6,25.5,6.7c0.2,0,0.4,0,0.6,0c-0.3-7.2-5.7-16.6-5.7-16.6l-23.8,0.6
					C43.9,53.4,47.7,57.8,47.4,62.6z"/>
			</g>
		</g>
		<g>
			<g>
				<path class="st3" d="M83.3,87.5c-5.4-2.9-3.9-17.1-3.9-17.1l-8,0.5v-0.5l-0.9,0.3l-0.9-0.3V71l-8-0.5c0,0,1.5,14.1-3.9,17.1
					c-5.4,2.9-38.3,4.4-34.9,37.1h46.9h1.7h46.9C121.6,91.9,88.6,90.5,83.3,87.5z"/>
				<path class="st4" d="M60.4,83.9c6.4-1,12.8-1.9,19.2-3c-0.9-4.9-0.3-10.5-0.3-10.5l-8,0.5v-0.5l-0.9,0.3l-0.9-0.3V71l-8-0.5
					C61.6,70.5,62.4,78.7,60.4,83.9z"/>
			</g>
			<g>
				<path class="st5" d="M94.2,90c-4.7,4.3-11.6,7.2-19.5,8l-4.3,15.3l-2.3-15.2C59.5,97.6,52,94.6,47,90
					c-11.1,3.6-27.4,11.3-25,34.6h47.7h1.8h47.7C121.6,101.4,105.3,93.6,94.2,90z"/>
				<g>
					<path class="st6" d="M68.7,102l-0.6-3.9C59.5,97.6,52,94.6,47,90c-1.9,0.6-3.9,1.3-5.9,2.2C45,97.7,55.8,101.6,68.7,102z"/>
					<path class="st6" d="M100.8,92.6c-2.2-1-4.5-1.9-6.6-2.5c-4.7,4.3-11.6,7.2-19.5,8l-1.1,4C86.1,101.6,96.6,97.8,100.8,92.6z"/>
				</g>
				<path class="st6" d="M69.4,117.1c0,1,0.8,1.8,1.8,1.8c1,0,1.8-0.8,1.8-1.8c0-1-0.8-1.8-1.8-1.8
					C70.2,115.3,69.4,116.1,69.4,117.1z"/>
			</g>
		</g>
		<g>
			<g>
				<g>
					<path class="st4" d="M54.8,49.7c-1.6-4.9-5.3-3.8-5.7-3.7c-0.4,0-4.2,0.6-3.6,5.7c0.7,5.1,3.7,7.9,6.5,7.1
						C54.8,58.5,56.4,54.7,54.8,49.7z"/>
					<path class="st4" d="M86.3,49.7c1.6-4.9,5.3-3.8,5.7-3.7c0.4,0,4.2,0.6,3.6,5.7c-0.7,5.1-3.7,7.9-6.5,7.1
						C86.2,58.5,84.7,54.7,86.3,49.7z"/>
					<path class="st3" d="M50.9,42.3c2-21.5,18.3-20.3,19.8-20.1c1.5-0.2,17.9-1.4,19.8,20.1c2,21.6-7.7,35.8-19.8,35
						C58.6,78.1,49,63.9,50.9,42.3z"/>
				</g>
				<g>
					<path class="st2" d="M50.2,46.4c0,0-1.1,28.3,15.6,31.4c16.7,3.2,27-10.8,25.5-32.9l-2.1-0.2c0,0-1.4,22.4-6.4,22.6
						c-5.1,0.2,2.4-7-7.3-7.4c-9.7-0.4-14.5-3.7-15.3,4.5c-0.5,5.5-7.3-3.9-8.1-18.5C51.3,31.4,50.2,46.4,50.2,46.4z"/>
					<path class="st1" d="M52.9,52.5c-0.4-2-0.7-4.2-0.8-6.5c-0.8-14.6-1.9,0.4-1.9,0.4s-0.1,3.1,0.3,7.3
						C51.4,53.3,52.2,52.9,52.9,52.5z"/>
					<path class="st1" d="M91.4,52.7c0.2-2.4,0.2-5,0-7.7l-2.1-0.2c0,0-0.2,3.1-0.7,6.9C89.5,52,90.5,52.3,91.4,52.7z"/>
				</g>
			</g>
			<g>
				<g>
					<path class="st4" d="M73.6,44.8c0.7,2,1.1,3.9,1.4,5.9c0.1,1,0.3,2,0.4,3c0.1,1,0.2,2,0.2,3l0,0.4l-0.3,0.2
						c-0.7,0.4-1.3,0.7-2,1.1c-0.7,0.3-1.4,0.7-2.1,0.9c0.5-0.6,1.1-1.1,1.6-1.6c0.6-0.5,1.1-1,1.7-1.5L74.3,57c-0.2-1-0.4-2-0.5-3
						c-0.1-1-0.2-2-0.3-3C73.4,48.9,73.3,46.9,73.6,44.8z"/>
				</g>
				<g>
					<path class="st7" d="M86.2,43.2c-1.1-0.4-2-0.7-2.8-1c-0.9-0.3-1.6-0.5-2.4-0.5c-0.7-0.1-1.5,0-2.3,0.2
						c-0.4,0.1-0.8,0.3-1.3,0.4c-0.5,0.2-0.9,0.4-1.5,0.5c0.1-0.5,0.4-1.1,0.6-1.5c0.3-0.4,0.7-0.9,1.2-1.3c0.9-0.7,2.2-1.1,3.5-1
						c1.2,0.1,2.4,0.7,3.2,1.4C85.3,41.2,86,42.1,86.2,43.2z"/>
				</g>
				<g>
					<path class="st7" d="M65.8,43.2c-1.1-0.4-2-0.7-2.8-1c-0.9-0.3-1.6-0.5-2.4-0.5c-0.7-0.1-1.5,0-2.3,0.2
						c-0.4,0.1-0.8,0.3-1.3,0.4c-0.5,0.2-0.9,0.4-1.5,0.5c0.1-0.5,0.4-1.1,0.6-1.5c0.3-0.4,0.7-0.9,1.2-1.3c0.9-0.7,2.2-1.1,3.5-1
						c1.2,0.1,2.4,0.7,3.2,1.4C64.9,41.2,65.6,42.1,65.8,43.2z"/>
				</g>
				<g>
					<path class="st7" d="M65.2,51c-0.4-0.9-0.8-1.7-1.3-2.3c-0.6-0.6-1.3-0.9-2.1-0.9c-0.8,0-1.5,0.2-2.1,0.8
						c-0.5,0.6-0.8,1.5-1,2.4c-0.3-0.9-0.3-2,0.3-3c0.3-0.5,0.7-0.9,1.2-1.2c0.5-0.2,1.1-0.3,1.6-0.3c1.1,0,2.2,0.6,2.8,1.5
						C65.2,49,65.3,50.1,65.2,51z"/>
				</g>
				<g>
					<path class="st7" d="M83.5,50.7c-0.4-0.9-0.8-1.7-1.3-2.3c-0.6-0.6-1.3-0.9-2.1-0.9c-0.8,0-1.5,0.2-2.1,0.8
						c-0.5,0.6-0.8,1.5-1,2.4c-0.3-0.9-0.3-2,0.3-3c0.3-0.5,0.7-0.9,1.2-1.2c0.5-0.2,1.1-0.3,1.6-0.3c1.1,0,2.2,0.6,2.8,1.5
						C83.5,48.7,83.6,49.8,83.5,50.7z"/>
				</g>
				<path class="st8" d="M79.1,63.3c-3.9,3.8-10.5,3.6-15.5,0.2"/>
			</g>
			<g>
				<g>
					<path class="st1" d="M71.1,25.3c0,0-11.8-2.1-13.7,5.3c-1.9,7.4,0.8,17.3-7.8,15.8c0,0-6.3,1.3-2.3,11.2
						c0,0-11.9-11.4-4.9-19.6c5.7-6.7,3.4-21.3,17.3-23.6C73.6,12,71.1,22.6,71.1,25.3z"/>
				</g>
				<g>
					<path class="st2" d="M71.1,25.3c0,0-11.8-2.1-13.7,5.3c-1.9,7.4,0.8,17.3-7.8,15.8c0,0-6.3,1.3-2.3,11.2
						c0,0-11.9-11.4-4.9-19.6c5.7-6.7,3.4-21.3,17.3-23.6C73.6,12,71.1,22.6,71.1,25.3z"/>
				</g>
				<g>
					<path class="st2" d="M70,25.3c0,0,11.8-2.1,13.7,5.3c1.9,7.4-0.8,17.3,7.8,15.8c0,0,6.3,1.3,2.3,11.2c0,0,11.9-11.4,4.9-19.6
						c-5.7-6.7-3.4-21.3-17.3-23.6C67.5,12,70,22.6,70,25.3z"/>
				</g>
				<g>
					<g>
						<path class="st2" d="M69.8,23.1c1.7,0,3.3,0.1,4.9,0.4c1.6,0.3,3.2,0.7,4.7,1.5c1.5,0.7,3,1.8,4,3.4c0.5,0.8,0.8,1.7,1,2.5
							c0.2,0.9,0.2,1.6,0.3,2.5c0.2,3.2-0.3,6.3-0.2,9.3c0.1,1.4,0.3,2.9,1.3,3.9c0.9,1,2.5,1.2,4,1.2l0,0l0,0
							c0.5,0.1,0.9,0.2,1.4,0.4c0.4,0.2,0.9,0.4,1.2,0.7c0.4,0.3,0.7,0.7,0.9,1.1c0.2,0.4,0.2,0.9,0.2,1.4c0-0.9-0.5-1.8-1.3-2.2
							c-0.7-0.5-1.6-0.7-2.5-0.7l0.1,0c-0.8,0.1-1.6,0.1-2.4,0c-0.8-0.1-1.7-0.4-2.4-1c-0.7-0.6-1.2-1.4-1.5-2.1
							c-0.3-0.8-0.5-1.6-0.6-2.4c-0.4-3.2-0.2-6.3-0.5-9.2c-0.1-0.7-0.2-1.5-0.3-2.1c-0.2-0.6-0.4-1.2-0.8-1.7
							c-0.7-1-1.8-1.8-3.1-2.4c-2.5-1.1-5.6-1.5-8.4-1.5L69.8,23.1z"/>
					</g>
				</g>
			</g>
		</g>
	</g>
</g>
</svg>
